%TF.GenerationSoftware,KiCad,Pcbnew,(7.0.0)*%
%TF.CreationDate,2023-03-31T08:30:36+02:00*%
%TF.ProjectId,MP2393,4d503233-3933-42e6-9b69-6361645f7063,rev?*%
%TF.SameCoordinates,Original*%
%TF.FileFunction,Drillmap*%
%TF.FilePolarity,Positive*%
%FSLAX45Y45*%
G04 Gerber Fmt 4.5, Leading zero omitted, Abs format (unit mm)*
G04 Created by KiCad (PCBNEW (7.0.0)) date 2023-03-31 08:30:36*
%MOMM*%
%LPD*%
G01*
G04 APERTURE LIST*
%ADD10C,0.100000*%
%ADD11C,0.200000*%
%ADD12C,0.020000*%
%ADD13C,0.040000*%
%ADD14C,0.119000*%
%ADD15C,0.170000*%
G04 APERTURE END LIST*
D10*
X16000000Y-500000D02*
X12000000Y-500000D01*
X16000000Y-3500000D02*
X16000000Y-500000D01*
X12000000Y-3500000D02*
X16000000Y-3500000D01*
X12000000Y-500000D02*
X12000000Y-3500000D01*
D11*
D12*
X13195000Y-1925000D02*
X13215000Y-1945000D01*
X13215000Y-1925000D02*
X13195000Y-1945000D01*
X13195000Y-2055000D02*
X13215000Y-2075000D01*
X13215000Y-2055000D02*
X13195000Y-2075000D01*
X13325000Y-2055000D02*
X13345000Y-2075000D01*
X13345000Y-2055000D02*
X13325000Y-2075000D01*
X13455000Y-1925000D02*
X13475000Y-1945000D01*
X13475000Y-1925000D02*
X13455000Y-1945000D01*
X13455000Y-2055000D02*
X13475000Y-2075000D01*
X13475000Y-2055000D02*
X13455000Y-2075000D01*
X13585000Y-1925000D02*
X13605000Y-1945000D01*
X13605000Y-1925000D02*
X13585000Y-1945000D01*
X13585000Y-2055000D02*
X13605000Y-2075000D01*
X13605000Y-2055000D02*
X13585000Y-2075000D01*
D13*
X12320000Y-700000D02*
G75*
G03*
X12320000Y-700000I-20000J0D01*
G01*
X12320000Y-900000D02*
G75*
G03*
X12320000Y-900000I-20000J0D01*
G01*
X12320000Y-1100000D02*
G75*
G03*
X12320000Y-1100000I-20000J0D01*
G01*
X12420000Y-3100000D02*
G75*
G03*
X12420000Y-3100000I-20000J0D01*
G01*
X12420000Y-3300000D02*
G75*
G03*
X12420000Y-3300000I-20000J0D01*
G01*
X12520000Y-700000D02*
G75*
G03*
X12520000Y-700000I-20000J0D01*
G01*
X12520000Y-900000D02*
G75*
G03*
X12520000Y-900000I-20000J0D01*
G01*
X12520000Y-1100000D02*
G75*
G03*
X12520000Y-1100000I-20000J0D01*
G01*
X12570000Y-1650000D02*
G75*
G03*
X12570000Y-1650000I-20000J0D01*
G01*
X12620000Y-3100000D02*
G75*
G03*
X12620000Y-3100000I-20000J0D01*
G01*
X12620000Y-3300000D02*
G75*
G03*
X12620000Y-3300000I-20000J0D01*
G01*
X12720000Y-700000D02*
G75*
G03*
X12720000Y-700000I-20000J0D01*
G01*
X12720000Y-900000D02*
G75*
G03*
X12720000Y-900000I-20000J0D01*
G01*
X12720000Y-1100000D02*
G75*
G03*
X12720000Y-1100000I-20000J0D01*
G01*
X12720000Y-1500000D02*
G75*
G03*
X12720000Y-1500000I-20000J0D01*
G01*
X12720000Y-1700000D02*
G75*
G03*
X12720000Y-1700000I-20000J0D01*
G01*
X12820000Y-3100000D02*
G75*
G03*
X12820000Y-3100000I-20000J0D01*
G01*
X12820000Y-3300000D02*
G75*
G03*
X12820000Y-3300000I-20000J0D01*
G01*
X12920000Y-700000D02*
G75*
G03*
X12920000Y-700000I-20000J0D01*
G01*
X12920000Y-900000D02*
G75*
G03*
X12920000Y-900000I-20000J0D01*
G01*
X12920000Y-1100000D02*
G75*
G03*
X12920000Y-1100000I-20000J0D01*
G01*
X12920000Y-1700000D02*
G75*
G03*
X12920000Y-1700000I-20000J0D01*
G01*
X12920000Y-1900000D02*
G75*
G03*
X12920000Y-1900000I-20000J0D01*
G01*
X12920000Y-2100000D02*
G75*
G03*
X12920000Y-2100000I-20000J0D01*
G01*
X13020000Y-3100000D02*
G75*
G03*
X13020000Y-3100000I-20000J0D01*
G01*
X13020000Y-3300000D02*
G75*
G03*
X13020000Y-3300000I-20000J0D01*
G01*
X13120000Y-700000D02*
G75*
G03*
X13120000Y-700000I-20000J0D01*
G01*
X13120000Y-900000D02*
G75*
G03*
X13120000Y-900000I-20000J0D01*
G01*
X13120000Y-1100000D02*
G75*
G03*
X13120000Y-1100000I-20000J0D01*
G01*
X13120000Y-1900000D02*
G75*
G03*
X13120000Y-1900000I-20000J0D01*
G01*
X13120000Y-2100000D02*
G75*
G03*
X13120000Y-2100000I-20000J0D01*
G01*
X13220000Y-3100000D02*
G75*
G03*
X13220000Y-3100000I-20000J0D01*
G01*
X13220000Y-3300000D02*
G75*
G03*
X13220000Y-3300000I-20000J0D01*
G01*
X13320000Y-700000D02*
G75*
G03*
X13320000Y-700000I-20000J0D01*
G01*
X13320000Y-900000D02*
G75*
G03*
X13320000Y-900000I-20000J0D01*
G01*
X13320000Y-1100000D02*
G75*
G03*
X13320000Y-1100000I-20000J0D01*
G01*
X13420000Y-3100000D02*
G75*
G03*
X13420000Y-3100000I-20000J0D01*
G01*
X13420000Y-3300000D02*
G75*
G03*
X13420000Y-3300000I-20000J0D01*
G01*
X13720000Y-1900000D02*
G75*
G03*
X13720000Y-1900000I-20000J0D01*
G01*
X13720000Y-2100000D02*
G75*
G03*
X13720000Y-2100000I-20000J0D01*
G01*
X13920000Y-1700000D02*
G75*
G03*
X13920000Y-1700000I-20000J0D01*
G01*
X13920000Y-1900000D02*
G75*
G03*
X13920000Y-1900000I-20000J0D01*
G01*
X14120000Y-1700000D02*
G75*
G03*
X14120000Y-1700000I-20000J0D01*
G01*
X14120000Y-1900000D02*
G75*
G03*
X14120000Y-1900000I-20000J0D01*
G01*
X14320000Y-1700000D02*
G75*
G03*
X14320000Y-1700000I-20000J0D01*
G01*
X14320000Y-1900000D02*
G75*
G03*
X14320000Y-1900000I-20000J0D01*
G01*
X14920000Y-700000D02*
G75*
G03*
X14920000Y-700000I-20000J0D01*
G01*
X14920000Y-900000D02*
G75*
G03*
X14920000Y-900000I-20000J0D01*
G01*
X14920000Y-3100000D02*
G75*
G03*
X14920000Y-3100000I-20000J0D01*
G01*
X14920000Y-3300000D02*
G75*
G03*
X14920000Y-3300000I-20000J0D01*
G01*
X15120000Y-700000D02*
G75*
G03*
X15120000Y-700000I-20000J0D01*
G01*
X15120000Y-900000D02*
G75*
G03*
X15120000Y-900000I-20000J0D01*
G01*
X15120000Y-1100000D02*
G75*
G03*
X15120000Y-1100000I-20000J0D01*
G01*
X15120000Y-3100000D02*
G75*
G03*
X15120000Y-3100000I-20000J0D01*
G01*
X15120000Y-3300000D02*
G75*
G03*
X15120000Y-3300000I-20000J0D01*
G01*
X15320000Y-700000D02*
G75*
G03*
X15320000Y-700000I-20000J0D01*
G01*
X15320000Y-900000D02*
G75*
G03*
X15320000Y-900000I-20000J0D01*
G01*
X15320000Y-1100000D02*
G75*
G03*
X15320000Y-1100000I-20000J0D01*
G01*
X15320000Y-1300000D02*
G75*
G03*
X15320000Y-1300000I-20000J0D01*
G01*
X15320000Y-1500000D02*
G75*
G03*
X15320000Y-1500000I-20000J0D01*
G01*
X15320000Y-3100000D02*
G75*
G03*
X15320000Y-3100000I-20000J0D01*
G01*
X15320000Y-3300000D02*
G75*
G03*
X15320000Y-3300000I-20000J0D01*
G01*
X15520000Y-700000D02*
G75*
G03*
X15520000Y-700000I-20000J0D01*
G01*
X15520000Y-900000D02*
G75*
G03*
X15520000Y-900000I-20000J0D01*
G01*
X15520000Y-1100000D02*
G75*
G03*
X15520000Y-1100000I-20000J0D01*
G01*
X15520000Y-1300000D02*
G75*
G03*
X15520000Y-1300000I-20000J0D01*
G01*
X15520000Y-1500000D02*
G75*
G03*
X15520000Y-1500000I-20000J0D01*
G01*
X15520000Y-3100000D02*
G75*
G03*
X15520000Y-3100000I-20000J0D01*
G01*
X15520000Y-3300000D02*
G75*
G03*
X15520000Y-3300000I-20000J0D01*
G01*
X15720000Y-700000D02*
G75*
G03*
X15720000Y-700000I-20000J0D01*
G01*
X15720000Y-900000D02*
G75*
G03*
X15720000Y-900000I-20000J0D01*
G01*
X15720000Y-1100000D02*
G75*
G03*
X15720000Y-1100000I-20000J0D01*
G01*
X15720000Y-1300000D02*
G75*
G03*
X15720000Y-1300000I-20000J0D01*
G01*
X15720000Y-1500000D02*
G75*
G03*
X15720000Y-1500000I-20000J0D01*
G01*
X15720000Y-3100000D02*
G75*
G03*
X15720000Y-3100000I-20000J0D01*
G01*
X15720000Y-3300000D02*
G75*
G03*
X15720000Y-3300000I-20000J0D01*
G01*
X15920000Y-700000D02*
G75*
G03*
X15920000Y-700000I-20000J0D01*
G01*
X15920000Y-900000D02*
G75*
G03*
X15920000Y-900000I-20000J0D01*
G01*
X15920000Y-1100000D02*
G75*
G03*
X15920000Y-1100000I-20000J0D01*
G01*
X15920000Y-1300000D02*
G75*
G03*
X15920000Y-1300000I-20000J0D01*
G01*
X15920000Y-1500000D02*
G75*
G03*
X15920000Y-1500000I-20000J0D01*
G01*
X15920000Y-3100000D02*
G75*
G03*
X15920000Y-3100000I-20000J0D01*
G01*
X15920000Y-3300000D02*
G75*
G03*
X15920000Y-3300000I-20000J0D01*
G01*
D14*
X12452000Y-1813500D02*
X12452000Y-1932500D01*
X12392500Y-1873000D02*
X12511500Y-1873000D01*
X12452000Y-2067500D02*
X12452000Y-2186500D01*
X12392500Y-2127000D02*
X12511500Y-2127000D01*
X15600000Y-1790500D02*
X15600000Y-1909500D01*
X15540500Y-1850000D02*
X15659500Y-1850000D01*
X15600000Y-2044500D02*
X15600000Y-2163500D01*
X15540500Y-2104000D02*
X15659500Y-2104000D01*
D15*
X13460105Y-2060105D02*
X13460105Y-1939895D01*
X13339895Y-1939895D01*
X13339895Y-2060105D01*
X13460105Y-2060105D01*
D11*
X12242619Y-3798476D02*
X12242619Y-3598476D01*
X12242619Y-3598476D02*
X12290238Y-3598476D01*
X12290238Y-3598476D02*
X12318809Y-3608000D01*
X12318809Y-3608000D02*
X12337857Y-3627048D01*
X12337857Y-3627048D02*
X12347381Y-3646095D01*
X12347381Y-3646095D02*
X12356905Y-3684190D01*
X12356905Y-3684190D02*
X12356905Y-3712762D01*
X12356905Y-3712762D02*
X12347381Y-3750857D01*
X12347381Y-3750857D02*
X12337857Y-3769905D01*
X12337857Y-3769905D02*
X12318809Y-3788952D01*
X12318809Y-3788952D02*
X12290238Y-3798476D01*
X12290238Y-3798476D02*
X12242619Y-3798476D01*
X12442619Y-3798476D02*
X12442619Y-3665143D01*
X12442619Y-3703238D02*
X12452143Y-3684190D01*
X12452143Y-3684190D02*
X12461667Y-3674667D01*
X12461667Y-3674667D02*
X12480714Y-3665143D01*
X12480714Y-3665143D02*
X12499762Y-3665143D01*
X12566428Y-3798476D02*
X12566428Y-3665143D01*
X12566428Y-3598476D02*
X12556905Y-3608000D01*
X12556905Y-3608000D02*
X12566428Y-3617524D01*
X12566428Y-3617524D02*
X12575952Y-3608000D01*
X12575952Y-3608000D02*
X12566428Y-3598476D01*
X12566428Y-3598476D02*
X12566428Y-3617524D01*
X12690238Y-3798476D02*
X12671190Y-3788952D01*
X12671190Y-3788952D02*
X12661667Y-3769905D01*
X12661667Y-3769905D02*
X12661667Y-3598476D01*
X12795000Y-3798476D02*
X12775952Y-3788952D01*
X12775952Y-3788952D02*
X12766428Y-3769905D01*
X12766428Y-3769905D02*
X12766428Y-3598476D01*
X12991190Y-3798476D02*
X12991190Y-3598476D01*
X12991190Y-3598476D02*
X13057857Y-3741333D01*
X13057857Y-3741333D02*
X13124524Y-3598476D01*
X13124524Y-3598476D02*
X13124524Y-3798476D01*
X13305476Y-3798476D02*
X13305476Y-3693714D01*
X13305476Y-3693714D02*
X13295952Y-3674667D01*
X13295952Y-3674667D02*
X13276905Y-3665143D01*
X13276905Y-3665143D02*
X13238809Y-3665143D01*
X13238809Y-3665143D02*
X13219762Y-3674667D01*
X13305476Y-3788952D02*
X13286428Y-3798476D01*
X13286428Y-3798476D02*
X13238809Y-3798476D01*
X13238809Y-3798476D02*
X13219762Y-3788952D01*
X13219762Y-3788952D02*
X13210238Y-3769905D01*
X13210238Y-3769905D02*
X13210238Y-3750857D01*
X13210238Y-3750857D02*
X13219762Y-3731809D01*
X13219762Y-3731809D02*
X13238809Y-3722286D01*
X13238809Y-3722286D02*
X13286428Y-3722286D01*
X13286428Y-3722286D02*
X13305476Y-3712762D01*
X13400714Y-3665143D02*
X13400714Y-3865143D01*
X13400714Y-3674667D02*
X13419762Y-3665143D01*
X13419762Y-3665143D02*
X13457857Y-3665143D01*
X13457857Y-3665143D02*
X13476905Y-3674667D01*
X13476905Y-3674667D02*
X13486428Y-3684190D01*
X13486428Y-3684190D02*
X13495952Y-3703238D01*
X13495952Y-3703238D02*
X13495952Y-3760381D01*
X13495952Y-3760381D02*
X13486428Y-3779428D01*
X13486428Y-3779428D02*
X13476905Y-3788952D01*
X13476905Y-3788952D02*
X13457857Y-3798476D01*
X13457857Y-3798476D02*
X13419762Y-3798476D01*
X13419762Y-3798476D02*
X13400714Y-3788952D01*
X13581667Y-3779428D02*
X13591190Y-3788952D01*
X13591190Y-3788952D02*
X13581667Y-3798476D01*
X13581667Y-3798476D02*
X13572143Y-3788952D01*
X13572143Y-3788952D02*
X13581667Y-3779428D01*
X13581667Y-3779428D02*
X13581667Y-3798476D01*
X13581667Y-3674667D02*
X13591190Y-3684190D01*
X13591190Y-3684190D02*
X13581667Y-3693714D01*
X13581667Y-3693714D02*
X13572143Y-3684190D01*
X13572143Y-3684190D02*
X13581667Y-3674667D01*
X13581667Y-3674667D02*
X13581667Y-3693714D01*
D12*
X11975000Y-4135000D02*
X11995000Y-4155000D01*
X11995000Y-4135000D02*
X11975000Y-4155000D01*
D11*
X12280714Y-4018476D02*
X12299762Y-4018476D01*
X12299762Y-4018476D02*
X12318809Y-4028000D01*
X12318809Y-4028000D02*
X12328333Y-4037524D01*
X12328333Y-4037524D02*
X12337857Y-4056571D01*
X12337857Y-4056571D02*
X12347381Y-4094667D01*
X12347381Y-4094667D02*
X12347381Y-4142286D01*
X12347381Y-4142286D02*
X12337857Y-4180381D01*
X12337857Y-4180381D02*
X12328333Y-4199429D01*
X12328333Y-4199429D02*
X12318809Y-4208952D01*
X12318809Y-4208952D02*
X12299762Y-4218476D01*
X12299762Y-4218476D02*
X12280714Y-4218476D01*
X12280714Y-4218476D02*
X12261667Y-4208952D01*
X12261667Y-4208952D02*
X12252143Y-4199429D01*
X12252143Y-4199429D02*
X12242619Y-4180381D01*
X12242619Y-4180381D02*
X12233095Y-4142286D01*
X12233095Y-4142286D02*
X12233095Y-4094667D01*
X12233095Y-4094667D02*
X12242619Y-4056571D01*
X12242619Y-4056571D02*
X12252143Y-4037524D01*
X12252143Y-4037524D02*
X12261667Y-4028000D01*
X12261667Y-4028000D02*
X12280714Y-4018476D01*
X12433095Y-4199429D02*
X12442619Y-4208952D01*
X12442619Y-4208952D02*
X12433095Y-4218476D01*
X12433095Y-4218476D02*
X12423571Y-4208952D01*
X12423571Y-4208952D02*
X12433095Y-4199429D01*
X12433095Y-4199429D02*
X12433095Y-4218476D01*
X12518809Y-4037524D02*
X12528333Y-4028000D01*
X12528333Y-4028000D02*
X12547381Y-4018476D01*
X12547381Y-4018476D02*
X12595000Y-4018476D01*
X12595000Y-4018476D02*
X12614048Y-4028000D01*
X12614048Y-4028000D02*
X12623571Y-4037524D01*
X12623571Y-4037524D02*
X12633095Y-4056571D01*
X12633095Y-4056571D02*
X12633095Y-4075619D01*
X12633095Y-4075619D02*
X12623571Y-4104190D01*
X12623571Y-4104190D02*
X12509286Y-4218476D01*
X12509286Y-4218476D02*
X12633095Y-4218476D01*
X12756905Y-4018476D02*
X12775952Y-4018476D01*
X12775952Y-4018476D02*
X12795000Y-4028000D01*
X12795000Y-4028000D02*
X12804524Y-4037524D01*
X12804524Y-4037524D02*
X12814048Y-4056571D01*
X12814048Y-4056571D02*
X12823571Y-4094667D01*
X12823571Y-4094667D02*
X12823571Y-4142286D01*
X12823571Y-4142286D02*
X12814048Y-4180381D01*
X12814048Y-4180381D02*
X12804524Y-4199429D01*
X12804524Y-4199429D02*
X12795000Y-4208952D01*
X12795000Y-4208952D02*
X12775952Y-4218476D01*
X12775952Y-4218476D02*
X12756905Y-4218476D01*
X12756905Y-4218476D02*
X12737857Y-4208952D01*
X12737857Y-4208952D02*
X12728333Y-4199429D01*
X12728333Y-4199429D02*
X12718809Y-4180381D01*
X12718809Y-4180381D02*
X12709286Y-4142286D01*
X12709286Y-4142286D02*
X12709286Y-4094667D01*
X12709286Y-4094667D02*
X12718809Y-4056571D01*
X12718809Y-4056571D02*
X12728333Y-4037524D01*
X12728333Y-4037524D02*
X12737857Y-4028000D01*
X12737857Y-4028000D02*
X12756905Y-4018476D01*
X12947381Y-4018476D02*
X12966429Y-4018476D01*
X12966429Y-4018476D02*
X12985476Y-4028000D01*
X12985476Y-4028000D02*
X12995000Y-4037524D01*
X12995000Y-4037524D02*
X13004524Y-4056571D01*
X13004524Y-4056571D02*
X13014048Y-4094667D01*
X13014048Y-4094667D02*
X13014048Y-4142286D01*
X13014048Y-4142286D02*
X13004524Y-4180381D01*
X13004524Y-4180381D02*
X12995000Y-4199429D01*
X12995000Y-4199429D02*
X12985476Y-4208952D01*
X12985476Y-4208952D02*
X12966429Y-4218476D01*
X12966429Y-4218476D02*
X12947381Y-4218476D01*
X12947381Y-4218476D02*
X12928333Y-4208952D01*
X12928333Y-4208952D02*
X12918809Y-4199429D01*
X12918809Y-4199429D02*
X12909286Y-4180381D01*
X12909286Y-4180381D02*
X12899762Y-4142286D01*
X12899762Y-4142286D02*
X12899762Y-4094667D01*
X12899762Y-4094667D02*
X12909286Y-4056571D01*
X12909286Y-4056571D02*
X12918809Y-4037524D01*
X12918809Y-4037524D02*
X12928333Y-4028000D01*
X12928333Y-4028000D02*
X12947381Y-4018476D01*
X13099762Y-4218476D02*
X13099762Y-4085143D01*
X13099762Y-4104190D02*
X13109286Y-4094667D01*
X13109286Y-4094667D02*
X13128333Y-4085143D01*
X13128333Y-4085143D02*
X13156905Y-4085143D01*
X13156905Y-4085143D02*
X13175952Y-4094667D01*
X13175952Y-4094667D02*
X13185476Y-4113714D01*
X13185476Y-4113714D02*
X13185476Y-4218476D01*
X13185476Y-4113714D02*
X13195000Y-4094667D01*
X13195000Y-4094667D02*
X13214048Y-4085143D01*
X13214048Y-4085143D02*
X13242619Y-4085143D01*
X13242619Y-4085143D02*
X13261667Y-4094667D01*
X13261667Y-4094667D02*
X13271190Y-4113714D01*
X13271190Y-4113714D02*
X13271190Y-4218476D01*
X13366429Y-4218476D02*
X13366429Y-4085143D01*
X13366429Y-4104190D02*
X13375952Y-4094667D01*
X13375952Y-4094667D02*
X13395000Y-4085143D01*
X13395000Y-4085143D02*
X13423571Y-4085143D01*
X13423571Y-4085143D02*
X13442619Y-4094667D01*
X13442619Y-4094667D02*
X13452143Y-4113714D01*
X13452143Y-4113714D02*
X13452143Y-4218476D01*
X13452143Y-4113714D02*
X13461667Y-4094667D01*
X13461667Y-4094667D02*
X13480714Y-4085143D01*
X13480714Y-4085143D02*
X13509286Y-4085143D01*
X13509286Y-4085143D02*
X13528333Y-4094667D01*
X13528333Y-4094667D02*
X13537857Y-4113714D01*
X13537857Y-4113714D02*
X13537857Y-4218476D01*
X13895952Y-4008952D02*
X13724524Y-4266095D01*
X14120714Y-4018476D02*
X14139762Y-4018476D01*
X14139762Y-4018476D02*
X14158810Y-4028000D01*
X14158810Y-4028000D02*
X14168333Y-4037524D01*
X14168333Y-4037524D02*
X14177857Y-4056571D01*
X14177857Y-4056571D02*
X14187381Y-4094667D01*
X14187381Y-4094667D02*
X14187381Y-4142286D01*
X14187381Y-4142286D02*
X14177857Y-4180381D01*
X14177857Y-4180381D02*
X14168333Y-4199429D01*
X14168333Y-4199429D02*
X14158810Y-4208952D01*
X14158810Y-4208952D02*
X14139762Y-4218476D01*
X14139762Y-4218476D02*
X14120714Y-4218476D01*
X14120714Y-4218476D02*
X14101667Y-4208952D01*
X14101667Y-4208952D02*
X14092143Y-4199429D01*
X14092143Y-4199429D02*
X14082619Y-4180381D01*
X14082619Y-4180381D02*
X14073095Y-4142286D01*
X14073095Y-4142286D02*
X14073095Y-4094667D01*
X14073095Y-4094667D02*
X14082619Y-4056571D01*
X14082619Y-4056571D02*
X14092143Y-4037524D01*
X14092143Y-4037524D02*
X14101667Y-4028000D01*
X14101667Y-4028000D02*
X14120714Y-4018476D01*
X14273095Y-4199429D02*
X14282619Y-4208952D01*
X14282619Y-4208952D02*
X14273095Y-4218476D01*
X14273095Y-4218476D02*
X14263571Y-4208952D01*
X14263571Y-4208952D02*
X14273095Y-4199429D01*
X14273095Y-4199429D02*
X14273095Y-4218476D01*
X14406429Y-4018476D02*
X14425476Y-4018476D01*
X14425476Y-4018476D02*
X14444524Y-4028000D01*
X14444524Y-4028000D02*
X14454048Y-4037524D01*
X14454048Y-4037524D02*
X14463571Y-4056571D01*
X14463571Y-4056571D02*
X14473095Y-4094667D01*
X14473095Y-4094667D02*
X14473095Y-4142286D01*
X14473095Y-4142286D02*
X14463571Y-4180381D01*
X14463571Y-4180381D02*
X14454048Y-4199429D01*
X14454048Y-4199429D02*
X14444524Y-4208952D01*
X14444524Y-4208952D02*
X14425476Y-4218476D01*
X14425476Y-4218476D02*
X14406429Y-4218476D01*
X14406429Y-4218476D02*
X14387381Y-4208952D01*
X14387381Y-4208952D02*
X14377857Y-4199429D01*
X14377857Y-4199429D02*
X14368333Y-4180381D01*
X14368333Y-4180381D02*
X14358810Y-4142286D01*
X14358810Y-4142286D02*
X14358810Y-4094667D01*
X14358810Y-4094667D02*
X14368333Y-4056571D01*
X14368333Y-4056571D02*
X14377857Y-4037524D01*
X14377857Y-4037524D02*
X14387381Y-4028000D01*
X14387381Y-4028000D02*
X14406429Y-4018476D01*
X14596905Y-4018476D02*
X14615952Y-4018476D01*
X14615952Y-4018476D02*
X14635000Y-4028000D01*
X14635000Y-4028000D02*
X14644524Y-4037524D01*
X14644524Y-4037524D02*
X14654048Y-4056571D01*
X14654048Y-4056571D02*
X14663571Y-4094667D01*
X14663571Y-4094667D02*
X14663571Y-4142286D01*
X14663571Y-4142286D02*
X14654048Y-4180381D01*
X14654048Y-4180381D02*
X14644524Y-4199429D01*
X14644524Y-4199429D02*
X14635000Y-4208952D01*
X14635000Y-4208952D02*
X14615952Y-4218476D01*
X14615952Y-4218476D02*
X14596905Y-4218476D01*
X14596905Y-4218476D02*
X14577857Y-4208952D01*
X14577857Y-4208952D02*
X14568333Y-4199429D01*
X14568333Y-4199429D02*
X14558810Y-4180381D01*
X14558810Y-4180381D02*
X14549286Y-4142286D01*
X14549286Y-4142286D02*
X14549286Y-4094667D01*
X14549286Y-4094667D02*
X14558810Y-4056571D01*
X14558810Y-4056571D02*
X14568333Y-4037524D01*
X14568333Y-4037524D02*
X14577857Y-4028000D01*
X14577857Y-4028000D02*
X14596905Y-4018476D01*
X14730238Y-4018476D02*
X14863571Y-4018476D01*
X14863571Y-4018476D02*
X14777857Y-4218476D01*
X14949286Y-4218476D02*
X14987381Y-4218476D01*
X14987381Y-4218476D02*
X15006429Y-4208952D01*
X15006429Y-4208952D02*
X15015952Y-4199429D01*
X15015952Y-4199429D02*
X15035000Y-4170857D01*
X15035000Y-4170857D02*
X15044524Y-4132762D01*
X15044524Y-4132762D02*
X15044524Y-4056571D01*
X15044524Y-4056571D02*
X15035000Y-4037524D01*
X15035000Y-4037524D02*
X15025476Y-4028000D01*
X15025476Y-4028000D02*
X15006429Y-4018476D01*
X15006429Y-4018476D02*
X14968333Y-4018476D01*
X14968333Y-4018476D02*
X14949286Y-4028000D01*
X14949286Y-4028000D02*
X14939762Y-4037524D01*
X14939762Y-4037524D02*
X14930238Y-4056571D01*
X14930238Y-4056571D02*
X14930238Y-4104190D01*
X14930238Y-4104190D02*
X14939762Y-4123238D01*
X14939762Y-4123238D02*
X14949286Y-4132762D01*
X14949286Y-4132762D02*
X14968333Y-4142286D01*
X14968333Y-4142286D02*
X15006429Y-4142286D01*
X15006429Y-4142286D02*
X15025476Y-4132762D01*
X15025476Y-4132762D02*
X15035000Y-4123238D01*
X15035000Y-4123238D02*
X15044524Y-4104190D01*
X15120714Y-4018476D02*
X15120714Y-4056571D01*
X15196905Y-4018476D02*
X15196905Y-4056571D01*
X15459762Y-4294667D02*
X15450238Y-4285143D01*
X15450238Y-4285143D02*
X15431191Y-4256571D01*
X15431191Y-4256571D02*
X15421667Y-4237524D01*
X15421667Y-4237524D02*
X15412143Y-4208952D01*
X15412143Y-4208952D02*
X15402619Y-4161333D01*
X15402619Y-4161333D02*
X15402619Y-4123238D01*
X15402619Y-4123238D02*
X15412143Y-4075619D01*
X15412143Y-4075619D02*
X15421667Y-4047048D01*
X15421667Y-4047048D02*
X15431191Y-4028000D01*
X15431191Y-4028000D02*
X15450238Y-3999428D01*
X15450238Y-3999428D02*
X15459762Y-3989905D01*
X15516905Y-4018476D02*
X15650238Y-4018476D01*
X15650238Y-4018476D02*
X15564524Y-4218476D01*
X15846429Y-4218476D02*
X15846429Y-4018476D01*
X15932143Y-4218476D02*
X15932143Y-4113714D01*
X15932143Y-4113714D02*
X15922619Y-4094667D01*
X15922619Y-4094667D02*
X15903572Y-4085143D01*
X15903572Y-4085143D02*
X15875000Y-4085143D01*
X15875000Y-4085143D02*
X15855952Y-4094667D01*
X15855952Y-4094667D02*
X15846429Y-4104190D01*
X16055952Y-4218476D02*
X16036905Y-4208952D01*
X16036905Y-4208952D02*
X16027381Y-4199429D01*
X16027381Y-4199429D02*
X16017857Y-4180381D01*
X16017857Y-4180381D02*
X16017857Y-4123238D01*
X16017857Y-4123238D02*
X16027381Y-4104190D01*
X16027381Y-4104190D02*
X16036905Y-4094667D01*
X16036905Y-4094667D02*
X16055952Y-4085143D01*
X16055952Y-4085143D02*
X16084524Y-4085143D01*
X16084524Y-4085143D02*
X16103572Y-4094667D01*
X16103572Y-4094667D02*
X16113095Y-4104190D01*
X16113095Y-4104190D02*
X16122619Y-4123238D01*
X16122619Y-4123238D02*
X16122619Y-4180381D01*
X16122619Y-4180381D02*
X16113095Y-4199429D01*
X16113095Y-4199429D02*
X16103572Y-4208952D01*
X16103572Y-4208952D02*
X16084524Y-4218476D01*
X16084524Y-4218476D02*
X16055952Y-4218476D01*
X16236905Y-4218476D02*
X16217857Y-4208952D01*
X16217857Y-4208952D02*
X16208333Y-4189905D01*
X16208333Y-4189905D02*
X16208333Y-4018476D01*
X16389286Y-4208952D02*
X16370238Y-4218476D01*
X16370238Y-4218476D02*
X16332143Y-4218476D01*
X16332143Y-4218476D02*
X16313095Y-4208952D01*
X16313095Y-4208952D02*
X16303572Y-4189905D01*
X16303572Y-4189905D02*
X16303572Y-4113714D01*
X16303572Y-4113714D02*
X16313095Y-4094667D01*
X16313095Y-4094667D02*
X16332143Y-4085143D01*
X16332143Y-4085143D02*
X16370238Y-4085143D01*
X16370238Y-4085143D02*
X16389286Y-4094667D01*
X16389286Y-4094667D02*
X16398810Y-4113714D01*
X16398810Y-4113714D02*
X16398810Y-4132762D01*
X16398810Y-4132762D02*
X16303572Y-4151809D01*
X16475000Y-4208952D02*
X16494048Y-4218476D01*
X16494048Y-4218476D02*
X16532143Y-4218476D01*
X16532143Y-4218476D02*
X16551191Y-4208952D01*
X16551191Y-4208952D02*
X16560714Y-4189905D01*
X16560714Y-4189905D02*
X16560714Y-4180381D01*
X16560714Y-4180381D02*
X16551191Y-4161333D01*
X16551191Y-4161333D02*
X16532143Y-4151809D01*
X16532143Y-4151809D02*
X16503572Y-4151809D01*
X16503572Y-4151809D02*
X16484524Y-4142286D01*
X16484524Y-4142286D02*
X16475000Y-4123238D01*
X16475000Y-4123238D02*
X16475000Y-4113714D01*
X16475000Y-4113714D02*
X16484524Y-4094667D01*
X16484524Y-4094667D02*
X16503572Y-4085143D01*
X16503572Y-4085143D02*
X16532143Y-4085143D01*
X16532143Y-4085143D02*
X16551191Y-4094667D01*
X16627381Y-4294667D02*
X16636905Y-4285143D01*
X16636905Y-4285143D02*
X16655953Y-4256571D01*
X16655953Y-4256571D02*
X16665476Y-4237524D01*
X16665476Y-4237524D02*
X16675000Y-4208952D01*
X16675000Y-4208952D02*
X16684524Y-4161333D01*
X16684524Y-4161333D02*
X16684524Y-4123238D01*
X16684524Y-4123238D02*
X16675000Y-4075619D01*
X16675000Y-4075619D02*
X16665476Y-4047048D01*
X16665476Y-4047048D02*
X16655953Y-4028000D01*
X16655953Y-4028000D02*
X16636905Y-3999428D01*
X16636905Y-3999428D02*
X16627381Y-3989905D01*
D13*
X11995000Y-4409000D02*
G75*
G03*
X11995000Y-4409000I-20000J0D01*
G01*
D11*
X12280714Y-4282476D02*
X12299762Y-4282476D01*
X12299762Y-4282476D02*
X12318809Y-4292000D01*
X12318809Y-4292000D02*
X12328333Y-4301524D01*
X12328333Y-4301524D02*
X12337857Y-4320571D01*
X12337857Y-4320571D02*
X12347381Y-4358667D01*
X12347381Y-4358667D02*
X12347381Y-4406286D01*
X12347381Y-4406286D02*
X12337857Y-4444381D01*
X12337857Y-4444381D02*
X12328333Y-4463429D01*
X12328333Y-4463429D02*
X12318809Y-4472952D01*
X12318809Y-4472952D02*
X12299762Y-4482476D01*
X12299762Y-4482476D02*
X12280714Y-4482476D01*
X12280714Y-4482476D02*
X12261667Y-4472952D01*
X12261667Y-4472952D02*
X12252143Y-4463429D01*
X12252143Y-4463429D02*
X12242619Y-4444381D01*
X12242619Y-4444381D02*
X12233095Y-4406286D01*
X12233095Y-4406286D02*
X12233095Y-4358667D01*
X12233095Y-4358667D02*
X12242619Y-4320571D01*
X12242619Y-4320571D02*
X12252143Y-4301524D01*
X12252143Y-4301524D02*
X12261667Y-4292000D01*
X12261667Y-4292000D02*
X12280714Y-4282476D01*
X12433095Y-4463429D02*
X12442619Y-4472952D01*
X12442619Y-4472952D02*
X12433095Y-4482476D01*
X12433095Y-4482476D02*
X12423571Y-4472952D01*
X12423571Y-4472952D02*
X12433095Y-4463429D01*
X12433095Y-4463429D02*
X12433095Y-4482476D01*
X12614048Y-4349143D02*
X12614048Y-4482476D01*
X12566428Y-4272952D02*
X12518809Y-4415810D01*
X12518809Y-4415810D02*
X12642619Y-4415810D01*
X12756905Y-4282476D02*
X12775952Y-4282476D01*
X12775952Y-4282476D02*
X12795000Y-4292000D01*
X12795000Y-4292000D02*
X12804524Y-4301524D01*
X12804524Y-4301524D02*
X12814048Y-4320571D01*
X12814048Y-4320571D02*
X12823571Y-4358667D01*
X12823571Y-4358667D02*
X12823571Y-4406286D01*
X12823571Y-4406286D02*
X12814048Y-4444381D01*
X12814048Y-4444381D02*
X12804524Y-4463429D01*
X12804524Y-4463429D02*
X12795000Y-4472952D01*
X12795000Y-4472952D02*
X12775952Y-4482476D01*
X12775952Y-4482476D02*
X12756905Y-4482476D01*
X12756905Y-4482476D02*
X12737857Y-4472952D01*
X12737857Y-4472952D02*
X12728333Y-4463429D01*
X12728333Y-4463429D02*
X12718809Y-4444381D01*
X12718809Y-4444381D02*
X12709286Y-4406286D01*
X12709286Y-4406286D02*
X12709286Y-4358667D01*
X12709286Y-4358667D02*
X12718809Y-4320571D01*
X12718809Y-4320571D02*
X12728333Y-4301524D01*
X12728333Y-4301524D02*
X12737857Y-4292000D01*
X12737857Y-4292000D02*
X12756905Y-4282476D01*
X12947381Y-4282476D02*
X12966429Y-4282476D01*
X12966429Y-4282476D02*
X12985476Y-4292000D01*
X12985476Y-4292000D02*
X12995000Y-4301524D01*
X12995000Y-4301524D02*
X13004524Y-4320571D01*
X13004524Y-4320571D02*
X13014048Y-4358667D01*
X13014048Y-4358667D02*
X13014048Y-4406286D01*
X13014048Y-4406286D02*
X13004524Y-4444381D01*
X13004524Y-4444381D02*
X12995000Y-4463429D01*
X12995000Y-4463429D02*
X12985476Y-4472952D01*
X12985476Y-4472952D02*
X12966429Y-4482476D01*
X12966429Y-4482476D02*
X12947381Y-4482476D01*
X12947381Y-4482476D02*
X12928333Y-4472952D01*
X12928333Y-4472952D02*
X12918809Y-4463429D01*
X12918809Y-4463429D02*
X12909286Y-4444381D01*
X12909286Y-4444381D02*
X12899762Y-4406286D01*
X12899762Y-4406286D02*
X12899762Y-4358667D01*
X12899762Y-4358667D02*
X12909286Y-4320571D01*
X12909286Y-4320571D02*
X12918809Y-4301524D01*
X12918809Y-4301524D02*
X12928333Y-4292000D01*
X12928333Y-4292000D02*
X12947381Y-4282476D01*
X13099762Y-4482476D02*
X13099762Y-4349143D01*
X13099762Y-4368190D02*
X13109286Y-4358667D01*
X13109286Y-4358667D02*
X13128333Y-4349143D01*
X13128333Y-4349143D02*
X13156905Y-4349143D01*
X13156905Y-4349143D02*
X13175952Y-4358667D01*
X13175952Y-4358667D02*
X13185476Y-4377714D01*
X13185476Y-4377714D02*
X13185476Y-4482476D01*
X13185476Y-4377714D02*
X13195000Y-4358667D01*
X13195000Y-4358667D02*
X13214048Y-4349143D01*
X13214048Y-4349143D02*
X13242619Y-4349143D01*
X13242619Y-4349143D02*
X13261667Y-4358667D01*
X13261667Y-4358667D02*
X13271190Y-4377714D01*
X13271190Y-4377714D02*
X13271190Y-4482476D01*
X13366429Y-4482476D02*
X13366429Y-4349143D01*
X13366429Y-4368190D02*
X13375952Y-4358667D01*
X13375952Y-4358667D02*
X13395000Y-4349143D01*
X13395000Y-4349143D02*
X13423571Y-4349143D01*
X13423571Y-4349143D02*
X13442619Y-4358667D01*
X13442619Y-4358667D02*
X13452143Y-4377714D01*
X13452143Y-4377714D02*
X13452143Y-4482476D01*
X13452143Y-4377714D02*
X13461667Y-4358667D01*
X13461667Y-4358667D02*
X13480714Y-4349143D01*
X13480714Y-4349143D02*
X13509286Y-4349143D01*
X13509286Y-4349143D02*
X13528333Y-4358667D01*
X13528333Y-4358667D02*
X13537857Y-4377714D01*
X13537857Y-4377714D02*
X13537857Y-4482476D01*
X13895952Y-4272952D02*
X13724524Y-4530095D01*
X14120714Y-4282476D02*
X14139762Y-4282476D01*
X14139762Y-4282476D02*
X14158810Y-4292000D01*
X14158810Y-4292000D02*
X14168333Y-4301524D01*
X14168333Y-4301524D02*
X14177857Y-4320571D01*
X14177857Y-4320571D02*
X14187381Y-4358667D01*
X14187381Y-4358667D02*
X14187381Y-4406286D01*
X14187381Y-4406286D02*
X14177857Y-4444381D01*
X14177857Y-4444381D02*
X14168333Y-4463429D01*
X14168333Y-4463429D02*
X14158810Y-4472952D01*
X14158810Y-4472952D02*
X14139762Y-4482476D01*
X14139762Y-4482476D02*
X14120714Y-4482476D01*
X14120714Y-4482476D02*
X14101667Y-4472952D01*
X14101667Y-4472952D02*
X14092143Y-4463429D01*
X14092143Y-4463429D02*
X14082619Y-4444381D01*
X14082619Y-4444381D02*
X14073095Y-4406286D01*
X14073095Y-4406286D02*
X14073095Y-4358667D01*
X14073095Y-4358667D02*
X14082619Y-4320571D01*
X14082619Y-4320571D02*
X14092143Y-4301524D01*
X14092143Y-4301524D02*
X14101667Y-4292000D01*
X14101667Y-4292000D02*
X14120714Y-4282476D01*
X14273095Y-4463429D02*
X14282619Y-4472952D01*
X14282619Y-4472952D02*
X14273095Y-4482476D01*
X14273095Y-4482476D02*
X14263571Y-4472952D01*
X14263571Y-4472952D02*
X14273095Y-4463429D01*
X14273095Y-4463429D02*
X14273095Y-4482476D01*
X14406429Y-4282476D02*
X14425476Y-4282476D01*
X14425476Y-4282476D02*
X14444524Y-4292000D01*
X14444524Y-4292000D02*
X14454048Y-4301524D01*
X14454048Y-4301524D02*
X14463571Y-4320571D01*
X14463571Y-4320571D02*
X14473095Y-4358667D01*
X14473095Y-4358667D02*
X14473095Y-4406286D01*
X14473095Y-4406286D02*
X14463571Y-4444381D01*
X14463571Y-4444381D02*
X14454048Y-4463429D01*
X14454048Y-4463429D02*
X14444524Y-4472952D01*
X14444524Y-4472952D02*
X14425476Y-4482476D01*
X14425476Y-4482476D02*
X14406429Y-4482476D01*
X14406429Y-4482476D02*
X14387381Y-4472952D01*
X14387381Y-4472952D02*
X14377857Y-4463429D01*
X14377857Y-4463429D02*
X14368333Y-4444381D01*
X14368333Y-4444381D02*
X14358810Y-4406286D01*
X14358810Y-4406286D02*
X14358810Y-4358667D01*
X14358810Y-4358667D02*
X14368333Y-4320571D01*
X14368333Y-4320571D02*
X14377857Y-4301524D01*
X14377857Y-4301524D02*
X14387381Y-4292000D01*
X14387381Y-4292000D02*
X14406429Y-4282476D01*
X14663571Y-4482476D02*
X14549286Y-4482476D01*
X14606429Y-4482476D02*
X14606429Y-4282476D01*
X14606429Y-4282476D02*
X14587381Y-4311048D01*
X14587381Y-4311048D02*
X14568333Y-4330095D01*
X14568333Y-4330095D02*
X14549286Y-4339619D01*
X14844524Y-4282476D02*
X14749286Y-4282476D01*
X14749286Y-4282476D02*
X14739762Y-4377714D01*
X14739762Y-4377714D02*
X14749286Y-4368190D01*
X14749286Y-4368190D02*
X14768333Y-4358667D01*
X14768333Y-4358667D02*
X14815952Y-4358667D01*
X14815952Y-4358667D02*
X14835000Y-4368190D01*
X14835000Y-4368190D02*
X14844524Y-4377714D01*
X14844524Y-4377714D02*
X14854048Y-4396762D01*
X14854048Y-4396762D02*
X14854048Y-4444381D01*
X14854048Y-4444381D02*
X14844524Y-4463429D01*
X14844524Y-4463429D02*
X14835000Y-4472952D01*
X14835000Y-4472952D02*
X14815952Y-4482476D01*
X14815952Y-4482476D02*
X14768333Y-4482476D01*
X14768333Y-4482476D02*
X14749286Y-4472952D01*
X14749286Y-4472952D02*
X14739762Y-4463429D01*
X14920714Y-4282476D02*
X15054048Y-4282476D01*
X15054048Y-4282476D02*
X14968333Y-4482476D01*
X15120714Y-4282476D02*
X15120714Y-4320571D01*
X15196905Y-4282476D02*
X15196905Y-4320571D01*
X15459762Y-4558667D02*
X15450238Y-4549143D01*
X15450238Y-4549143D02*
X15431191Y-4520571D01*
X15431191Y-4520571D02*
X15421667Y-4501524D01*
X15421667Y-4501524D02*
X15412143Y-4472952D01*
X15412143Y-4472952D02*
X15402619Y-4425333D01*
X15402619Y-4425333D02*
X15402619Y-4387238D01*
X15402619Y-4387238D02*
X15412143Y-4339619D01*
X15412143Y-4339619D02*
X15421667Y-4311048D01*
X15421667Y-4311048D02*
X15431191Y-4292000D01*
X15431191Y-4292000D02*
X15450238Y-4263429D01*
X15450238Y-4263429D02*
X15459762Y-4253905D01*
X15564524Y-4368190D02*
X15545476Y-4358667D01*
X15545476Y-4358667D02*
X15535952Y-4349143D01*
X15535952Y-4349143D02*
X15526429Y-4330095D01*
X15526429Y-4330095D02*
X15526429Y-4320571D01*
X15526429Y-4320571D02*
X15535952Y-4301524D01*
X15535952Y-4301524D02*
X15545476Y-4292000D01*
X15545476Y-4292000D02*
X15564524Y-4282476D01*
X15564524Y-4282476D02*
X15602619Y-4282476D01*
X15602619Y-4282476D02*
X15621667Y-4292000D01*
X15621667Y-4292000D02*
X15631191Y-4301524D01*
X15631191Y-4301524D02*
X15640714Y-4320571D01*
X15640714Y-4320571D02*
X15640714Y-4330095D01*
X15640714Y-4330095D02*
X15631191Y-4349143D01*
X15631191Y-4349143D02*
X15621667Y-4358667D01*
X15621667Y-4358667D02*
X15602619Y-4368190D01*
X15602619Y-4368190D02*
X15564524Y-4368190D01*
X15564524Y-4368190D02*
X15545476Y-4377714D01*
X15545476Y-4377714D02*
X15535952Y-4387238D01*
X15535952Y-4387238D02*
X15526429Y-4406286D01*
X15526429Y-4406286D02*
X15526429Y-4444381D01*
X15526429Y-4444381D02*
X15535952Y-4463429D01*
X15535952Y-4463429D02*
X15545476Y-4472952D01*
X15545476Y-4472952D02*
X15564524Y-4482476D01*
X15564524Y-4482476D02*
X15602619Y-4482476D01*
X15602619Y-4482476D02*
X15621667Y-4472952D01*
X15621667Y-4472952D02*
X15631191Y-4463429D01*
X15631191Y-4463429D02*
X15640714Y-4444381D01*
X15640714Y-4444381D02*
X15640714Y-4406286D01*
X15640714Y-4406286D02*
X15631191Y-4387238D01*
X15631191Y-4387238D02*
X15621667Y-4377714D01*
X15621667Y-4377714D02*
X15602619Y-4368190D01*
X15707381Y-4282476D02*
X15831191Y-4282476D01*
X15831191Y-4282476D02*
X15764524Y-4358667D01*
X15764524Y-4358667D02*
X15793095Y-4358667D01*
X15793095Y-4358667D02*
X15812143Y-4368190D01*
X15812143Y-4368190D02*
X15821667Y-4377714D01*
X15821667Y-4377714D02*
X15831191Y-4396762D01*
X15831191Y-4396762D02*
X15831191Y-4444381D01*
X15831191Y-4444381D02*
X15821667Y-4463429D01*
X15821667Y-4463429D02*
X15812143Y-4472952D01*
X15812143Y-4472952D02*
X15793095Y-4482476D01*
X15793095Y-4482476D02*
X15735952Y-4482476D01*
X15735952Y-4482476D02*
X15716905Y-4472952D01*
X15716905Y-4472952D02*
X15707381Y-4463429D01*
X16036905Y-4482476D02*
X16036905Y-4282476D01*
X16122619Y-4482476D02*
X16122619Y-4377714D01*
X16122619Y-4377714D02*
X16113095Y-4358667D01*
X16113095Y-4358667D02*
X16094048Y-4349143D01*
X16094048Y-4349143D02*
X16065476Y-4349143D01*
X16065476Y-4349143D02*
X16046429Y-4358667D01*
X16046429Y-4358667D02*
X16036905Y-4368190D01*
X16246429Y-4482476D02*
X16227381Y-4472952D01*
X16227381Y-4472952D02*
X16217857Y-4463429D01*
X16217857Y-4463429D02*
X16208333Y-4444381D01*
X16208333Y-4444381D02*
X16208333Y-4387238D01*
X16208333Y-4387238D02*
X16217857Y-4368190D01*
X16217857Y-4368190D02*
X16227381Y-4358667D01*
X16227381Y-4358667D02*
X16246429Y-4349143D01*
X16246429Y-4349143D02*
X16275000Y-4349143D01*
X16275000Y-4349143D02*
X16294048Y-4358667D01*
X16294048Y-4358667D02*
X16303572Y-4368190D01*
X16303572Y-4368190D02*
X16313095Y-4387238D01*
X16313095Y-4387238D02*
X16313095Y-4444381D01*
X16313095Y-4444381D02*
X16303572Y-4463429D01*
X16303572Y-4463429D02*
X16294048Y-4472952D01*
X16294048Y-4472952D02*
X16275000Y-4482476D01*
X16275000Y-4482476D02*
X16246429Y-4482476D01*
X16427381Y-4482476D02*
X16408333Y-4472952D01*
X16408333Y-4472952D02*
X16398810Y-4453905D01*
X16398810Y-4453905D02*
X16398810Y-4282476D01*
X16579762Y-4472952D02*
X16560714Y-4482476D01*
X16560714Y-4482476D02*
X16522619Y-4482476D01*
X16522619Y-4482476D02*
X16503572Y-4472952D01*
X16503572Y-4472952D02*
X16494048Y-4453905D01*
X16494048Y-4453905D02*
X16494048Y-4377714D01*
X16494048Y-4377714D02*
X16503572Y-4358667D01*
X16503572Y-4358667D02*
X16522619Y-4349143D01*
X16522619Y-4349143D02*
X16560714Y-4349143D01*
X16560714Y-4349143D02*
X16579762Y-4358667D01*
X16579762Y-4358667D02*
X16589286Y-4377714D01*
X16589286Y-4377714D02*
X16589286Y-4396762D01*
X16589286Y-4396762D02*
X16494048Y-4415810D01*
X16665476Y-4472952D02*
X16684524Y-4482476D01*
X16684524Y-4482476D02*
X16722619Y-4482476D01*
X16722619Y-4482476D02*
X16741667Y-4472952D01*
X16741667Y-4472952D02*
X16751191Y-4453905D01*
X16751191Y-4453905D02*
X16751191Y-4444381D01*
X16751191Y-4444381D02*
X16741667Y-4425333D01*
X16741667Y-4425333D02*
X16722619Y-4415810D01*
X16722619Y-4415810D02*
X16694048Y-4415810D01*
X16694048Y-4415810D02*
X16675000Y-4406286D01*
X16675000Y-4406286D02*
X16665476Y-4387238D01*
X16665476Y-4387238D02*
X16665476Y-4377714D01*
X16665476Y-4377714D02*
X16675000Y-4358667D01*
X16675000Y-4358667D02*
X16694048Y-4349143D01*
X16694048Y-4349143D02*
X16722619Y-4349143D01*
X16722619Y-4349143D02*
X16741667Y-4358667D01*
X16817857Y-4558667D02*
X16827381Y-4549143D01*
X16827381Y-4549143D02*
X16846429Y-4520571D01*
X16846429Y-4520571D02*
X16855953Y-4501524D01*
X16855953Y-4501524D02*
X16865476Y-4472952D01*
X16865476Y-4472952D02*
X16875000Y-4425333D01*
X16875000Y-4425333D02*
X16875000Y-4387238D01*
X16875000Y-4387238D02*
X16865476Y-4339619D01*
X16865476Y-4339619D02*
X16855953Y-4311048D01*
X16855953Y-4311048D02*
X16846429Y-4292000D01*
X16846429Y-4292000D02*
X16827381Y-4263429D01*
X16827381Y-4263429D02*
X16817857Y-4253905D01*
D14*
X11935500Y-4613500D02*
X11935500Y-4732500D01*
X11876000Y-4673000D02*
X11995000Y-4673000D01*
D11*
X12347381Y-4746476D02*
X12233095Y-4746476D01*
X12290238Y-4746476D02*
X12290238Y-4546476D01*
X12290238Y-4546476D02*
X12271190Y-4575048D01*
X12271190Y-4575048D02*
X12252143Y-4594095D01*
X12252143Y-4594095D02*
X12233095Y-4603619D01*
X12433095Y-4727429D02*
X12442619Y-4736952D01*
X12442619Y-4736952D02*
X12433095Y-4746476D01*
X12433095Y-4746476D02*
X12423571Y-4736952D01*
X12423571Y-4736952D02*
X12433095Y-4727429D01*
X12433095Y-4727429D02*
X12433095Y-4746476D01*
X12633095Y-4746476D02*
X12518809Y-4746476D01*
X12575952Y-4746476D02*
X12575952Y-4546476D01*
X12575952Y-4546476D02*
X12556905Y-4575048D01*
X12556905Y-4575048D02*
X12537857Y-4594095D01*
X12537857Y-4594095D02*
X12518809Y-4603619D01*
X12728333Y-4746476D02*
X12766428Y-4746476D01*
X12766428Y-4746476D02*
X12785476Y-4736952D01*
X12785476Y-4736952D02*
X12795000Y-4727429D01*
X12795000Y-4727429D02*
X12814048Y-4698857D01*
X12814048Y-4698857D02*
X12823571Y-4660762D01*
X12823571Y-4660762D02*
X12823571Y-4584571D01*
X12823571Y-4584571D02*
X12814048Y-4565524D01*
X12814048Y-4565524D02*
X12804524Y-4556000D01*
X12804524Y-4556000D02*
X12785476Y-4546476D01*
X12785476Y-4546476D02*
X12747381Y-4546476D01*
X12747381Y-4546476D02*
X12728333Y-4556000D01*
X12728333Y-4556000D02*
X12718809Y-4565524D01*
X12718809Y-4565524D02*
X12709286Y-4584571D01*
X12709286Y-4584571D02*
X12709286Y-4632190D01*
X12709286Y-4632190D02*
X12718809Y-4651238D01*
X12718809Y-4651238D02*
X12728333Y-4660762D01*
X12728333Y-4660762D02*
X12747381Y-4670286D01*
X12747381Y-4670286D02*
X12785476Y-4670286D01*
X12785476Y-4670286D02*
X12804524Y-4660762D01*
X12804524Y-4660762D02*
X12814048Y-4651238D01*
X12814048Y-4651238D02*
X12823571Y-4632190D01*
X12947381Y-4546476D02*
X12966429Y-4546476D01*
X12966429Y-4546476D02*
X12985476Y-4556000D01*
X12985476Y-4556000D02*
X12995000Y-4565524D01*
X12995000Y-4565524D02*
X13004524Y-4584571D01*
X13004524Y-4584571D02*
X13014048Y-4622667D01*
X13014048Y-4622667D02*
X13014048Y-4670286D01*
X13014048Y-4670286D02*
X13004524Y-4708381D01*
X13004524Y-4708381D02*
X12995000Y-4727429D01*
X12995000Y-4727429D02*
X12985476Y-4736952D01*
X12985476Y-4736952D02*
X12966429Y-4746476D01*
X12966429Y-4746476D02*
X12947381Y-4746476D01*
X12947381Y-4746476D02*
X12928333Y-4736952D01*
X12928333Y-4736952D02*
X12918809Y-4727429D01*
X12918809Y-4727429D02*
X12909286Y-4708381D01*
X12909286Y-4708381D02*
X12899762Y-4670286D01*
X12899762Y-4670286D02*
X12899762Y-4622667D01*
X12899762Y-4622667D02*
X12909286Y-4584571D01*
X12909286Y-4584571D02*
X12918809Y-4565524D01*
X12918809Y-4565524D02*
X12928333Y-4556000D01*
X12928333Y-4556000D02*
X12947381Y-4546476D01*
X13099762Y-4746476D02*
X13099762Y-4613143D01*
X13099762Y-4632190D02*
X13109286Y-4622667D01*
X13109286Y-4622667D02*
X13128333Y-4613143D01*
X13128333Y-4613143D02*
X13156905Y-4613143D01*
X13156905Y-4613143D02*
X13175952Y-4622667D01*
X13175952Y-4622667D02*
X13185476Y-4641714D01*
X13185476Y-4641714D02*
X13185476Y-4746476D01*
X13185476Y-4641714D02*
X13195000Y-4622667D01*
X13195000Y-4622667D02*
X13214048Y-4613143D01*
X13214048Y-4613143D02*
X13242619Y-4613143D01*
X13242619Y-4613143D02*
X13261667Y-4622667D01*
X13261667Y-4622667D02*
X13271190Y-4641714D01*
X13271190Y-4641714D02*
X13271190Y-4746476D01*
X13366429Y-4746476D02*
X13366429Y-4613143D01*
X13366429Y-4632190D02*
X13375952Y-4622667D01*
X13375952Y-4622667D02*
X13395000Y-4613143D01*
X13395000Y-4613143D02*
X13423571Y-4613143D01*
X13423571Y-4613143D02*
X13442619Y-4622667D01*
X13442619Y-4622667D02*
X13452143Y-4641714D01*
X13452143Y-4641714D02*
X13452143Y-4746476D01*
X13452143Y-4641714D02*
X13461667Y-4622667D01*
X13461667Y-4622667D02*
X13480714Y-4613143D01*
X13480714Y-4613143D02*
X13509286Y-4613143D01*
X13509286Y-4613143D02*
X13528333Y-4622667D01*
X13528333Y-4622667D02*
X13537857Y-4641714D01*
X13537857Y-4641714D02*
X13537857Y-4746476D01*
X13895952Y-4536952D02*
X13724524Y-4794095D01*
X14120714Y-4546476D02*
X14139762Y-4546476D01*
X14139762Y-4546476D02*
X14158810Y-4556000D01*
X14158810Y-4556000D02*
X14168333Y-4565524D01*
X14168333Y-4565524D02*
X14177857Y-4584571D01*
X14177857Y-4584571D02*
X14187381Y-4622667D01*
X14187381Y-4622667D02*
X14187381Y-4670286D01*
X14187381Y-4670286D02*
X14177857Y-4708381D01*
X14177857Y-4708381D02*
X14168333Y-4727429D01*
X14168333Y-4727429D02*
X14158810Y-4736952D01*
X14158810Y-4736952D02*
X14139762Y-4746476D01*
X14139762Y-4746476D02*
X14120714Y-4746476D01*
X14120714Y-4746476D02*
X14101667Y-4736952D01*
X14101667Y-4736952D02*
X14092143Y-4727429D01*
X14092143Y-4727429D02*
X14082619Y-4708381D01*
X14082619Y-4708381D02*
X14073095Y-4670286D01*
X14073095Y-4670286D02*
X14073095Y-4622667D01*
X14073095Y-4622667D02*
X14082619Y-4584571D01*
X14082619Y-4584571D02*
X14092143Y-4565524D01*
X14092143Y-4565524D02*
X14101667Y-4556000D01*
X14101667Y-4556000D02*
X14120714Y-4546476D01*
X14273095Y-4727429D02*
X14282619Y-4736952D01*
X14282619Y-4736952D02*
X14273095Y-4746476D01*
X14273095Y-4746476D02*
X14263571Y-4736952D01*
X14263571Y-4736952D02*
X14273095Y-4727429D01*
X14273095Y-4727429D02*
X14273095Y-4746476D01*
X14406429Y-4546476D02*
X14425476Y-4546476D01*
X14425476Y-4546476D02*
X14444524Y-4556000D01*
X14444524Y-4556000D02*
X14454048Y-4565524D01*
X14454048Y-4565524D02*
X14463571Y-4584571D01*
X14463571Y-4584571D02*
X14473095Y-4622667D01*
X14473095Y-4622667D02*
X14473095Y-4670286D01*
X14473095Y-4670286D02*
X14463571Y-4708381D01*
X14463571Y-4708381D02*
X14454048Y-4727429D01*
X14454048Y-4727429D02*
X14444524Y-4736952D01*
X14444524Y-4736952D02*
X14425476Y-4746476D01*
X14425476Y-4746476D02*
X14406429Y-4746476D01*
X14406429Y-4746476D02*
X14387381Y-4736952D01*
X14387381Y-4736952D02*
X14377857Y-4727429D01*
X14377857Y-4727429D02*
X14368333Y-4708381D01*
X14368333Y-4708381D02*
X14358810Y-4670286D01*
X14358810Y-4670286D02*
X14358810Y-4622667D01*
X14358810Y-4622667D02*
X14368333Y-4584571D01*
X14368333Y-4584571D02*
X14377857Y-4565524D01*
X14377857Y-4565524D02*
X14387381Y-4556000D01*
X14387381Y-4556000D02*
X14406429Y-4546476D01*
X14644524Y-4613143D02*
X14644524Y-4746476D01*
X14596905Y-4536952D02*
X14549286Y-4679810D01*
X14549286Y-4679810D02*
X14673095Y-4679810D01*
X14835000Y-4546476D02*
X14796905Y-4546476D01*
X14796905Y-4546476D02*
X14777857Y-4556000D01*
X14777857Y-4556000D02*
X14768333Y-4565524D01*
X14768333Y-4565524D02*
X14749286Y-4594095D01*
X14749286Y-4594095D02*
X14739762Y-4632190D01*
X14739762Y-4632190D02*
X14739762Y-4708381D01*
X14739762Y-4708381D02*
X14749286Y-4727429D01*
X14749286Y-4727429D02*
X14758810Y-4736952D01*
X14758810Y-4736952D02*
X14777857Y-4746476D01*
X14777857Y-4746476D02*
X14815952Y-4746476D01*
X14815952Y-4746476D02*
X14835000Y-4736952D01*
X14835000Y-4736952D02*
X14844524Y-4727429D01*
X14844524Y-4727429D02*
X14854048Y-4708381D01*
X14854048Y-4708381D02*
X14854048Y-4660762D01*
X14854048Y-4660762D02*
X14844524Y-4641714D01*
X14844524Y-4641714D02*
X14835000Y-4632190D01*
X14835000Y-4632190D02*
X14815952Y-4622667D01*
X14815952Y-4622667D02*
X14777857Y-4622667D01*
X14777857Y-4622667D02*
X14758810Y-4632190D01*
X14758810Y-4632190D02*
X14749286Y-4641714D01*
X14749286Y-4641714D02*
X14739762Y-4660762D01*
X14949286Y-4746476D02*
X14987381Y-4746476D01*
X14987381Y-4746476D02*
X15006429Y-4736952D01*
X15006429Y-4736952D02*
X15015952Y-4727429D01*
X15015952Y-4727429D02*
X15035000Y-4698857D01*
X15035000Y-4698857D02*
X15044524Y-4660762D01*
X15044524Y-4660762D02*
X15044524Y-4584571D01*
X15044524Y-4584571D02*
X15035000Y-4565524D01*
X15035000Y-4565524D02*
X15025476Y-4556000D01*
X15025476Y-4556000D02*
X15006429Y-4546476D01*
X15006429Y-4546476D02*
X14968333Y-4546476D01*
X14968333Y-4546476D02*
X14949286Y-4556000D01*
X14949286Y-4556000D02*
X14939762Y-4565524D01*
X14939762Y-4565524D02*
X14930238Y-4584571D01*
X14930238Y-4584571D02*
X14930238Y-4632190D01*
X14930238Y-4632190D02*
X14939762Y-4651238D01*
X14939762Y-4651238D02*
X14949286Y-4660762D01*
X14949286Y-4660762D02*
X14968333Y-4670286D01*
X14968333Y-4670286D02*
X15006429Y-4670286D01*
X15006429Y-4670286D02*
X15025476Y-4660762D01*
X15025476Y-4660762D02*
X15035000Y-4651238D01*
X15035000Y-4651238D02*
X15044524Y-4632190D01*
X15120714Y-4546476D02*
X15120714Y-4584571D01*
X15196905Y-4546476D02*
X15196905Y-4584571D01*
X15459762Y-4822667D02*
X15450238Y-4813143D01*
X15450238Y-4813143D02*
X15431191Y-4784571D01*
X15431191Y-4784571D02*
X15421667Y-4765524D01*
X15421667Y-4765524D02*
X15412143Y-4736952D01*
X15412143Y-4736952D02*
X15402619Y-4689333D01*
X15402619Y-4689333D02*
X15402619Y-4651238D01*
X15402619Y-4651238D02*
X15412143Y-4603619D01*
X15412143Y-4603619D02*
X15421667Y-4575048D01*
X15421667Y-4575048D02*
X15431191Y-4556000D01*
X15431191Y-4556000D02*
X15450238Y-4527429D01*
X15450238Y-4527429D02*
X15459762Y-4517905D01*
X15621667Y-4613143D02*
X15621667Y-4746476D01*
X15574048Y-4536952D02*
X15526429Y-4679810D01*
X15526429Y-4679810D02*
X15650238Y-4679810D01*
X15846429Y-4746476D02*
X15846429Y-4546476D01*
X15932143Y-4746476D02*
X15932143Y-4641714D01*
X15932143Y-4641714D02*
X15922619Y-4622667D01*
X15922619Y-4622667D02*
X15903572Y-4613143D01*
X15903572Y-4613143D02*
X15875000Y-4613143D01*
X15875000Y-4613143D02*
X15855952Y-4622667D01*
X15855952Y-4622667D02*
X15846429Y-4632190D01*
X16055952Y-4746476D02*
X16036905Y-4736952D01*
X16036905Y-4736952D02*
X16027381Y-4727429D01*
X16027381Y-4727429D02*
X16017857Y-4708381D01*
X16017857Y-4708381D02*
X16017857Y-4651238D01*
X16017857Y-4651238D02*
X16027381Y-4632190D01*
X16027381Y-4632190D02*
X16036905Y-4622667D01*
X16036905Y-4622667D02*
X16055952Y-4613143D01*
X16055952Y-4613143D02*
X16084524Y-4613143D01*
X16084524Y-4613143D02*
X16103572Y-4622667D01*
X16103572Y-4622667D02*
X16113095Y-4632190D01*
X16113095Y-4632190D02*
X16122619Y-4651238D01*
X16122619Y-4651238D02*
X16122619Y-4708381D01*
X16122619Y-4708381D02*
X16113095Y-4727429D01*
X16113095Y-4727429D02*
X16103572Y-4736952D01*
X16103572Y-4736952D02*
X16084524Y-4746476D01*
X16084524Y-4746476D02*
X16055952Y-4746476D01*
X16236905Y-4746476D02*
X16217857Y-4736952D01*
X16217857Y-4736952D02*
X16208333Y-4717905D01*
X16208333Y-4717905D02*
X16208333Y-4546476D01*
X16389286Y-4736952D02*
X16370238Y-4746476D01*
X16370238Y-4746476D02*
X16332143Y-4746476D01*
X16332143Y-4746476D02*
X16313095Y-4736952D01*
X16313095Y-4736952D02*
X16303572Y-4717905D01*
X16303572Y-4717905D02*
X16303572Y-4641714D01*
X16303572Y-4641714D02*
X16313095Y-4622667D01*
X16313095Y-4622667D02*
X16332143Y-4613143D01*
X16332143Y-4613143D02*
X16370238Y-4613143D01*
X16370238Y-4613143D02*
X16389286Y-4622667D01*
X16389286Y-4622667D02*
X16398810Y-4641714D01*
X16398810Y-4641714D02*
X16398810Y-4660762D01*
X16398810Y-4660762D02*
X16303572Y-4679810D01*
X16475000Y-4736952D02*
X16494048Y-4746476D01*
X16494048Y-4746476D02*
X16532143Y-4746476D01*
X16532143Y-4746476D02*
X16551191Y-4736952D01*
X16551191Y-4736952D02*
X16560714Y-4717905D01*
X16560714Y-4717905D02*
X16560714Y-4708381D01*
X16560714Y-4708381D02*
X16551191Y-4689333D01*
X16551191Y-4689333D02*
X16532143Y-4679810D01*
X16532143Y-4679810D02*
X16503572Y-4679810D01*
X16503572Y-4679810D02*
X16484524Y-4670286D01*
X16484524Y-4670286D02*
X16475000Y-4651238D01*
X16475000Y-4651238D02*
X16475000Y-4641714D01*
X16475000Y-4641714D02*
X16484524Y-4622667D01*
X16484524Y-4622667D02*
X16503572Y-4613143D01*
X16503572Y-4613143D02*
X16532143Y-4613143D01*
X16532143Y-4613143D02*
X16551191Y-4622667D01*
X16627381Y-4822667D02*
X16636905Y-4813143D01*
X16636905Y-4813143D02*
X16655953Y-4784571D01*
X16655953Y-4784571D02*
X16665476Y-4765524D01*
X16665476Y-4765524D02*
X16675000Y-4736952D01*
X16675000Y-4736952D02*
X16684524Y-4689333D01*
X16684524Y-4689333D02*
X16684524Y-4651238D01*
X16684524Y-4651238D02*
X16675000Y-4603619D01*
X16675000Y-4603619D02*
X16665476Y-4575048D01*
X16665476Y-4575048D02*
X16655953Y-4556000D01*
X16655953Y-4556000D02*
X16636905Y-4527429D01*
X16636905Y-4527429D02*
X16627381Y-4517905D01*
D15*
X11970105Y-4997105D02*
X11970105Y-4876895D01*
X11849895Y-4876895D01*
X11849895Y-4997105D01*
X11970105Y-4997105D01*
D11*
X12347381Y-5010476D02*
X12233095Y-5010476D01*
X12290238Y-5010476D02*
X12290238Y-4810476D01*
X12290238Y-4810476D02*
X12271190Y-4839048D01*
X12271190Y-4839048D02*
X12252143Y-4858095D01*
X12252143Y-4858095D02*
X12233095Y-4867619D01*
X12433095Y-4991429D02*
X12442619Y-5000952D01*
X12442619Y-5000952D02*
X12433095Y-5010476D01*
X12433095Y-5010476D02*
X12423571Y-5000952D01*
X12423571Y-5000952D02*
X12433095Y-4991429D01*
X12433095Y-4991429D02*
X12433095Y-5010476D01*
X12509286Y-4810476D02*
X12642619Y-4810476D01*
X12642619Y-4810476D02*
X12556905Y-5010476D01*
X12756905Y-4810476D02*
X12775952Y-4810476D01*
X12775952Y-4810476D02*
X12795000Y-4820000D01*
X12795000Y-4820000D02*
X12804524Y-4829524D01*
X12804524Y-4829524D02*
X12814048Y-4848571D01*
X12814048Y-4848571D02*
X12823571Y-4886667D01*
X12823571Y-4886667D02*
X12823571Y-4934286D01*
X12823571Y-4934286D02*
X12814048Y-4972381D01*
X12814048Y-4972381D02*
X12804524Y-4991429D01*
X12804524Y-4991429D02*
X12795000Y-5000952D01*
X12795000Y-5000952D02*
X12775952Y-5010476D01*
X12775952Y-5010476D02*
X12756905Y-5010476D01*
X12756905Y-5010476D02*
X12737857Y-5000952D01*
X12737857Y-5000952D02*
X12728333Y-4991429D01*
X12728333Y-4991429D02*
X12718809Y-4972381D01*
X12718809Y-4972381D02*
X12709286Y-4934286D01*
X12709286Y-4934286D02*
X12709286Y-4886667D01*
X12709286Y-4886667D02*
X12718809Y-4848571D01*
X12718809Y-4848571D02*
X12728333Y-4829524D01*
X12728333Y-4829524D02*
X12737857Y-4820000D01*
X12737857Y-4820000D02*
X12756905Y-4810476D01*
X12947381Y-4810476D02*
X12966429Y-4810476D01*
X12966429Y-4810476D02*
X12985476Y-4820000D01*
X12985476Y-4820000D02*
X12995000Y-4829524D01*
X12995000Y-4829524D02*
X13004524Y-4848571D01*
X13004524Y-4848571D02*
X13014048Y-4886667D01*
X13014048Y-4886667D02*
X13014048Y-4934286D01*
X13014048Y-4934286D02*
X13004524Y-4972381D01*
X13004524Y-4972381D02*
X12995000Y-4991429D01*
X12995000Y-4991429D02*
X12985476Y-5000952D01*
X12985476Y-5000952D02*
X12966429Y-5010476D01*
X12966429Y-5010476D02*
X12947381Y-5010476D01*
X12947381Y-5010476D02*
X12928333Y-5000952D01*
X12928333Y-5000952D02*
X12918809Y-4991429D01*
X12918809Y-4991429D02*
X12909286Y-4972381D01*
X12909286Y-4972381D02*
X12899762Y-4934286D01*
X12899762Y-4934286D02*
X12899762Y-4886667D01*
X12899762Y-4886667D02*
X12909286Y-4848571D01*
X12909286Y-4848571D02*
X12918809Y-4829524D01*
X12918809Y-4829524D02*
X12928333Y-4820000D01*
X12928333Y-4820000D02*
X12947381Y-4810476D01*
X13099762Y-5010476D02*
X13099762Y-4877143D01*
X13099762Y-4896190D02*
X13109286Y-4886667D01*
X13109286Y-4886667D02*
X13128333Y-4877143D01*
X13128333Y-4877143D02*
X13156905Y-4877143D01*
X13156905Y-4877143D02*
X13175952Y-4886667D01*
X13175952Y-4886667D02*
X13185476Y-4905714D01*
X13185476Y-4905714D02*
X13185476Y-5010476D01*
X13185476Y-4905714D02*
X13195000Y-4886667D01*
X13195000Y-4886667D02*
X13214048Y-4877143D01*
X13214048Y-4877143D02*
X13242619Y-4877143D01*
X13242619Y-4877143D02*
X13261667Y-4886667D01*
X13261667Y-4886667D02*
X13271190Y-4905714D01*
X13271190Y-4905714D02*
X13271190Y-5010476D01*
X13366429Y-5010476D02*
X13366429Y-4877143D01*
X13366429Y-4896190D02*
X13375952Y-4886667D01*
X13375952Y-4886667D02*
X13395000Y-4877143D01*
X13395000Y-4877143D02*
X13423571Y-4877143D01*
X13423571Y-4877143D02*
X13442619Y-4886667D01*
X13442619Y-4886667D02*
X13452143Y-4905714D01*
X13452143Y-4905714D02*
X13452143Y-5010476D01*
X13452143Y-4905714D02*
X13461667Y-4886667D01*
X13461667Y-4886667D02*
X13480714Y-4877143D01*
X13480714Y-4877143D02*
X13509286Y-4877143D01*
X13509286Y-4877143D02*
X13528333Y-4886667D01*
X13528333Y-4886667D02*
X13537857Y-4905714D01*
X13537857Y-4905714D02*
X13537857Y-5010476D01*
X13895952Y-4800952D02*
X13724524Y-5058095D01*
X14120714Y-4810476D02*
X14139762Y-4810476D01*
X14139762Y-4810476D02*
X14158810Y-4820000D01*
X14158810Y-4820000D02*
X14168333Y-4829524D01*
X14168333Y-4829524D02*
X14177857Y-4848571D01*
X14177857Y-4848571D02*
X14187381Y-4886667D01*
X14187381Y-4886667D02*
X14187381Y-4934286D01*
X14187381Y-4934286D02*
X14177857Y-4972381D01*
X14177857Y-4972381D02*
X14168333Y-4991429D01*
X14168333Y-4991429D02*
X14158810Y-5000952D01*
X14158810Y-5000952D02*
X14139762Y-5010476D01*
X14139762Y-5010476D02*
X14120714Y-5010476D01*
X14120714Y-5010476D02*
X14101667Y-5000952D01*
X14101667Y-5000952D02*
X14092143Y-4991429D01*
X14092143Y-4991429D02*
X14082619Y-4972381D01*
X14082619Y-4972381D02*
X14073095Y-4934286D01*
X14073095Y-4934286D02*
X14073095Y-4886667D01*
X14073095Y-4886667D02*
X14082619Y-4848571D01*
X14082619Y-4848571D02*
X14092143Y-4829524D01*
X14092143Y-4829524D02*
X14101667Y-4820000D01*
X14101667Y-4820000D02*
X14120714Y-4810476D01*
X14273095Y-4991429D02*
X14282619Y-5000952D01*
X14282619Y-5000952D02*
X14273095Y-5010476D01*
X14273095Y-5010476D02*
X14263571Y-5000952D01*
X14263571Y-5000952D02*
X14273095Y-4991429D01*
X14273095Y-4991429D02*
X14273095Y-5010476D01*
X14406429Y-4810476D02*
X14425476Y-4810476D01*
X14425476Y-4810476D02*
X14444524Y-4820000D01*
X14444524Y-4820000D02*
X14454048Y-4829524D01*
X14454048Y-4829524D02*
X14463571Y-4848571D01*
X14463571Y-4848571D02*
X14473095Y-4886667D01*
X14473095Y-4886667D02*
X14473095Y-4934286D01*
X14473095Y-4934286D02*
X14463571Y-4972381D01*
X14463571Y-4972381D02*
X14454048Y-4991429D01*
X14454048Y-4991429D02*
X14444524Y-5000952D01*
X14444524Y-5000952D02*
X14425476Y-5010476D01*
X14425476Y-5010476D02*
X14406429Y-5010476D01*
X14406429Y-5010476D02*
X14387381Y-5000952D01*
X14387381Y-5000952D02*
X14377857Y-4991429D01*
X14377857Y-4991429D02*
X14368333Y-4972381D01*
X14368333Y-4972381D02*
X14358810Y-4934286D01*
X14358810Y-4934286D02*
X14358810Y-4886667D01*
X14358810Y-4886667D02*
X14368333Y-4848571D01*
X14368333Y-4848571D02*
X14377857Y-4829524D01*
X14377857Y-4829524D02*
X14387381Y-4820000D01*
X14387381Y-4820000D02*
X14406429Y-4810476D01*
X14644524Y-4810476D02*
X14606429Y-4810476D01*
X14606429Y-4810476D02*
X14587381Y-4820000D01*
X14587381Y-4820000D02*
X14577857Y-4829524D01*
X14577857Y-4829524D02*
X14558810Y-4858095D01*
X14558810Y-4858095D02*
X14549286Y-4896190D01*
X14549286Y-4896190D02*
X14549286Y-4972381D01*
X14549286Y-4972381D02*
X14558810Y-4991429D01*
X14558810Y-4991429D02*
X14568333Y-5000952D01*
X14568333Y-5000952D02*
X14587381Y-5010476D01*
X14587381Y-5010476D02*
X14625476Y-5010476D01*
X14625476Y-5010476D02*
X14644524Y-5000952D01*
X14644524Y-5000952D02*
X14654048Y-4991429D01*
X14654048Y-4991429D02*
X14663571Y-4972381D01*
X14663571Y-4972381D02*
X14663571Y-4924762D01*
X14663571Y-4924762D02*
X14654048Y-4905714D01*
X14654048Y-4905714D02*
X14644524Y-4896190D01*
X14644524Y-4896190D02*
X14625476Y-4886667D01*
X14625476Y-4886667D02*
X14587381Y-4886667D01*
X14587381Y-4886667D02*
X14568333Y-4896190D01*
X14568333Y-4896190D02*
X14558810Y-4905714D01*
X14558810Y-4905714D02*
X14549286Y-4924762D01*
X14835000Y-4810476D02*
X14796905Y-4810476D01*
X14796905Y-4810476D02*
X14777857Y-4820000D01*
X14777857Y-4820000D02*
X14768333Y-4829524D01*
X14768333Y-4829524D02*
X14749286Y-4858095D01*
X14749286Y-4858095D02*
X14739762Y-4896190D01*
X14739762Y-4896190D02*
X14739762Y-4972381D01*
X14739762Y-4972381D02*
X14749286Y-4991429D01*
X14749286Y-4991429D02*
X14758810Y-5000952D01*
X14758810Y-5000952D02*
X14777857Y-5010476D01*
X14777857Y-5010476D02*
X14815952Y-5010476D01*
X14815952Y-5010476D02*
X14835000Y-5000952D01*
X14835000Y-5000952D02*
X14844524Y-4991429D01*
X14844524Y-4991429D02*
X14854048Y-4972381D01*
X14854048Y-4972381D02*
X14854048Y-4924762D01*
X14854048Y-4924762D02*
X14844524Y-4905714D01*
X14844524Y-4905714D02*
X14835000Y-4896190D01*
X14835000Y-4896190D02*
X14815952Y-4886667D01*
X14815952Y-4886667D02*
X14777857Y-4886667D01*
X14777857Y-4886667D02*
X14758810Y-4896190D01*
X14758810Y-4896190D02*
X14749286Y-4905714D01*
X14749286Y-4905714D02*
X14739762Y-4924762D01*
X14949286Y-5010476D02*
X14987381Y-5010476D01*
X14987381Y-5010476D02*
X15006429Y-5000952D01*
X15006429Y-5000952D02*
X15015952Y-4991429D01*
X15015952Y-4991429D02*
X15035000Y-4962857D01*
X15035000Y-4962857D02*
X15044524Y-4924762D01*
X15044524Y-4924762D02*
X15044524Y-4848571D01*
X15044524Y-4848571D02*
X15035000Y-4829524D01*
X15035000Y-4829524D02*
X15025476Y-4820000D01*
X15025476Y-4820000D02*
X15006429Y-4810476D01*
X15006429Y-4810476D02*
X14968333Y-4810476D01*
X14968333Y-4810476D02*
X14949286Y-4820000D01*
X14949286Y-4820000D02*
X14939762Y-4829524D01*
X14939762Y-4829524D02*
X14930238Y-4848571D01*
X14930238Y-4848571D02*
X14930238Y-4896190D01*
X14930238Y-4896190D02*
X14939762Y-4915238D01*
X14939762Y-4915238D02*
X14949286Y-4924762D01*
X14949286Y-4924762D02*
X14968333Y-4934286D01*
X14968333Y-4934286D02*
X15006429Y-4934286D01*
X15006429Y-4934286D02*
X15025476Y-4924762D01*
X15025476Y-4924762D02*
X15035000Y-4915238D01*
X15035000Y-4915238D02*
X15044524Y-4896190D01*
X15120714Y-4810476D02*
X15120714Y-4848571D01*
X15196905Y-4810476D02*
X15196905Y-4848571D01*
X15459762Y-5086667D02*
X15450238Y-5077143D01*
X15450238Y-5077143D02*
X15431191Y-5048571D01*
X15431191Y-5048571D02*
X15421667Y-5029524D01*
X15421667Y-5029524D02*
X15412143Y-5000952D01*
X15412143Y-5000952D02*
X15402619Y-4953333D01*
X15402619Y-4953333D02*
X15402619Y-4915238D01*
X15402619Y-4915238D02*
X15412143Y-4867619D01*
X15412143Y-4867619D02*
X15421667Y-4839048D01*
X15421667Y-4839048D02*
X15431191Y-4820000D01*
X15431191Y-4820000D02*
X15450238Y-4791429D01*
X15450238Y-4791429D02*
X15459762Y-4781905D01*
X15640714Y-5010476D02*
X15526429Y-5010476D01*
X15583571Y-5010476D02*
X15583571Y-4810476D01*
X15583571Y-4810476D02*
X15564524Y-4839048D01*
X15564524Y-4839048D02*
X15545476Y-4858095D01*
X15545476Y-4858095D02*
X15526429Y-4867619D01*
X15846429Y-5010476D02*
X15846429Y-4810476D01*
X15932143Y-5010476D02*
X15932143Y-4905714D01*
X15932143Y-4905714D02*
X15922619Y-4886667D01*
X15922619Y-4886667D02*
X15903572Y-4877143D01*
X15903572Y-4877143D02*
X15875000Y-4877143D01*
X15875000Y-4877143D02*
X15855952Y-4886667D01*
X15855952Y-4886667D02*
X15846429Y-4896190D01*
X16055952Y-5010476D02*
X16036905Y-5000952D01*
X16036905Y-5000952D02*
X16027381Y-4991429D01*
X16027381Y-4991429D02*
X16017857Y-4972381D01*
X16017857Y-4972381D02*
X16017857Y-4915238D01*
X16017857Y-4915238D02*
X16027381Y-4896190D01*
X16027381Y-4896190D02*
X16036905Y-4886667D01*
X16036905Y-4886667D02*
X16055952Y-4877143D01*
X16055952Y-4877143D02*
X16084524Y-4877143D01*
X16084524Y-4877143D02*
X16103572Y-4886667D01*
X16103572Y-4886667D02*
X16113095Y-4896190D01*
X16113095Y-4896190D02*
X16122619Y-4915238D01*
X16122619Y-4915238D02*
X16122619Y-4972381D01*
X16122619Y-4972381D02*
X16113095Y-4991429D01*
X16113095Y-4991429D02*
X16103572Y-5000952D01*
X16103572Y-5000952D02*
X16084524Y-5010476D01*
X16084524Y-5010476D02*
X16055952Y-5010476D01*
X16236905Y-5010476D02*
X16217857Y-5000952D01*
X16217857Y-5000952D02*
X16208333Y-4981905D01*
X16208333Y-4981905D02*
X16208333Y-4810476D01*
X16389286Y-5000952D02*
X16370238Y-5010476D01*
X16370238Y-5010476D02*
X16332143Y-5010476D01*
X16332143Y-5010476D02*
X16313095Y-5000952D01*
X16313095Y-5000952D02*
X16303572Y-4981905D01*
X16303572Y-4981905D02*
X16303572Y-4905714D01*
X16303572Y-4905714D02*
X16313095Y-4886667D01*
X16313095Y-4886667D02*
X16332143Y-4877143D01*
X16332143Y-4877143D02*
X16370238Y-4877143D01*
X16370238Y-4877143D02*
X16389286Y-4886667D01*
X16389286Y-4886667D02*
X16398810Y-4905714D01*
X16398810Y-4905714D02*
X16398810Y-4924762D01*
X16398810Y-4924762D02*
X16303572Y-4943810D01*
X16465476Y-5086667D02*
X16475000Y-5077143D01*
X16475000Y-5077143D02*
X16494048Y-5048571D01*
X16494048Y-5048571D02*
X16503572Y-5029524D01*
X16503572Y-5029524D02*
X16513095Y-5000952D01*
X16513095Y-5000952D02*
X16522619Y-4953333D01*
X16522619Y-4953333D02*
X16522619Y-4915238D01*
X16522619Y-4915238D02*
X16513095Y-4867619D01*
X16513095Y-4867619D02*
X16503572Y-4839048D01*
X16503572Y-4839048D02*
X16494048Y-4820000D01*
X16494048Y-4820000D02*
X16475000Y-4791429D01*
X16475000Y-4791429D02*
X16465476Y-4781905D01*
M02*
