%TF.GenerationSoftware,KiCad,Pcbnew,(7.0.0)*%
%TF.CreationDate,2023-03-31T08:30:36+02:00*%
%TF.ProjectId,MP2393,4d503233-3933-42e6-9b69-6361645f7063,rev?*%
%TF.SameCoordinates,Original*%
%TF.FileFunction,Drillmap*%
%TF.FilePolarity,Positive*%
%FSLAX45Y45*%
G04 Gerber Fmt 4.5, Leading zero omitted, Abs format (unit mm)*
G04 Created by KiCad (PCBNEW (7.0.0)) date 2023-03-31 08:30:36*
%MOMM*%
%LPD*%
G01*
G04 APERTURE LIST*
%ADD10C,0.100000*%
%ADD11C,0.200000*%
G04 APERTURE END LIST*
D10*
X16000000Y-500000D02*
X12000000Y-500000D01*
X16000000Y-3500000D02*
X16000000Y-500000D01*
X12000000Y-3500000D02*
X16000000Y-3500000D01*
X12000000Y-500000D02*
X12000000Y-3500000D01*
D11*
X12242619Y-3798476D02*
X12242619Y-3598476D01*
X12242619Y-3598476D02*
X12290238Y-3598476D01*
X12290238Y-3598476D02*
X12318809Y-3608000D01*
X12318809Y-3608000D02*
X12337857Y-3627048D01*
X12337857Y-3627048D02*
X12347381Y-3646095D01*
X12347381Y-3646095D02*
X12356905Y-3684190D01*
X12356905Y-3684190D02*
X12356905Y-3712762D01*
X12356905Y-3712762D02*
X12347381Y-3750857D01*
X12347381Y-3750857D02*
X12337857Y-3769905D01*
X12337857Y-3769905D02*
X12318809Y-3788952D01*
X12318809Y-3788952D02*
X12290238Y-3798476D01*
X12290238Y-3798476D02*
X12242619Y-3798476D01*
X12442619Y-3798476D02*
X12442619Y-3665143D01*
X12442619Y-3703238D02*
X12452143Y-3684190D01*
X12452143Y-3684190D02*
X12461667Y-3674667D01*
X12461667Y-3674667D02*
X12480714Y-3665143D01*
X12480714Y-3665143D02*
X12499762Y-3665143D01*
X12566428Y-3798476D02*
X12566428Y-3665143D01*
X12566428Y-3598476D02*
X12556905Y-3608000D01*
X12556905Y-3608000D02*
X12566428Y-3617524D01*
X12566428Y-3617524D02*
X12575952Y-3608000D01*
X12575952Y-3608000D02*
X12566428Y-3598476D01*
X12566428Y-3598476D02*
X12566428Y-3617524D01*
X12690238Y-3798476D02*
X12671190Y-3788952D01*
X12671190Y-3788952D02*
X12661667Y-3769905D01*
X12661667Y-3769905D02*
X12661667Y-3598476D01*
X12795000Y-3798476D02*
X12775952Y-3788952D01*
X12775952Y-3788952D02*
X12766428Y-3769905D01*
X12766428Y-3769905D02*
X12766428Y-3598476D01*
X12991190Y-3798476D02*
X12991190Y-3598476D01*
X12991190Y-3598476D02*
X13057857Y-3741333D01*
X13057857Y-3741333D02*
X13124524Y-3598476D01*
X13124524Y-3598476D02*
X13124524Y-3798476D01*
X13305476Y-3798476D02*
X13305476Y-3693714D01*
X13305476Y-3693714D02*
X13295952Y-3674667D01*
X13295952Y-3674667D02*
X13276905Y-3665143D01*
X13276905Y-3665143D02*
X13238809Y-3665143D01*
X13238809Y-3665143D02*
X13219762Y-3674667D01*
X13305476Y-3788952D02*
X13286428Y-3798476D01*
X13286428Y-3798476D02*
X13238809Y-3798476D01*
X13238809Y-3798476D02*
X13219762Y-3788952D01*
X13219762Y-3788952D02*
X13210238Y-3769905D01*
X13210238Y-3769905D02*
X13210238Y-3750857D01*
X13210238Y-3750857D02*
X13219762Y-3731809D01*
X13219762Y-3731809D02*
X13238809Y-3722286D01*
X13238809Y-3722286D02*
X13286428Y-3722286D01*
X13286428Y-3722286D02*
X13305476Y-3712762D01*
X13400714Y-3665143D02*
X13400714Y-3865143D01*
X13400714Y-3674667D02*
X13419762Y-3665143D01*
X13419762Y-3665143D02*
X13457857Y-3665143D01*
X13457857Y-3665143D02*
X13476905Y-3674667D01*
X13476905Y-3674667D02*
X13486428Y-3684190D01*
X13486428Y-3684190D02*
X13495952Y-3703238D01*
X13495952Y-3703238D02*
X13495952Y-3760381D01*
X13495952Y-3760381D02*
X13486428Y-3779428D01*
X13486428Y-3779428D02*
X13476905Y-3788952D01*
X13476905Y-3788952D02*
X13457857Y-3798476D01*
X13457857Y-3798476D02*
X13419762Y-3798476D01*
X13419762Y-3798476D02*
X13400714Y-3788952D01*
X13581667Y-3779428D02*
X13591190Y-3788952D01*
X13591190Y-3788952D02*
X13581667Y-3798476D01*
X13581667Y-3798476D02*
X13572143Y-3788952D01*
X13572143Y-3788952D02*
X13581667Y-3779428D01*
X13581667Y-3779428D02*
X13581667Y-3798476D01*
X13581667Y-3674667D02*
X13591190Y-3684190D01*
X13591190Y-3684190D02*
X13581667Y-3693714D01*
X13581667Y-3693714D02*
X13572143Y-3684190D01*
X13572143Y-3684190D02*
X13581667Y-3674667D01*
X13581667Y-3674667D02*
X13581667Y-3693714D01*
M02*
