G04 #@! TF.GenerationSoftware,KiCad,Pcbnew,(7.0.0)*
G04 #@! TF.CreationDate,2023-03-31T08:30:06+02:00*
G04 #@! TF.ProjectId,MP2393,4d503233-3933-42e6-9b69-6361645f7063,rev?*
G04 #@! TF.SameCoordinates,Original*
G04 #@! TF.FileFunction,Copper,L1,Top*
G04 #@! TF.FilePolarity,Positive*
%FSLAX46Y46*%
G04 Gerber Fmt 4.6, Leading zero omitted, Abs format (unit mm)*
G04 Created by KiCad (PCBNEW (7.0.0)) date 2023-03-31 08:30:06*
%MOMM*%
%LPD*%
G01*
G04 APERTURE LIST*
G04 Aperture macros list*
%AMRoundRect*
0 Rectangle with rounded corners*
0 $1 Rounding radius*
0 $2 $3 $4 $5 $6 $7 $8 $9 X,Y pos of 4 corners*
0 Add a 4 corners polygon primitive as box body*
4,1,4,$2,$3,$4,$5,$6,$7,$8,$9,$2,$3,0*
0 Add four circle primitives for the rounded corners*
1,1,$1+$1,$2,$3*
1,1,$1+$1,$4,$5*
1,1,$1+$1,$6,$7*
1,1,$1+$1,$8,$9*
0 Add four rect primitives between the rounded corners*
20,1,$1+$1,$2,$3,$4,$5,0*
20,1,$1+$1,$4,$5,$6,$7,0*
20,1,$1+$1,$6,$7,$8,$9,0*
20,1,$1+$1,$8,$9,$2,$3,0*%
G04 Aperture macros list end*
G04 #@! TA.AperFunction,SMDPad,CuDef*
%ADD10RoundRect,0.249999X-1.075001X0.450001X-1.075001X-0.450001X1.075001X-0.450001X1.075001X0.450001X0*%
G04 #@! TD*
G04 #@! TA.AperFunction,SMDPad,CuDef*
%ADD11RoundRect,0.250000X0.412500X0.650000X-0.412500X0.650000X-0.412500X-0.650000X0.412500X-0.650000X0*%
G04 #@! TD*
G04 #@! TA.AperFunction,SMDPad,CuDef*
%ADD12RoundRect,0.250000X-0.412500X-0.650000X0.412500X-0.650000X0.412500X0.650000X-0.412500X0.650000X0*%
G04 #@! TD*
G04 #@! TA.AperFunction,SMDPad,CuDef*
%ADD13R,1.500000X2.700000*%
G04 #@! TD*
G04 #@! TA.AperFunction,SMDPad,CuDef*
%ADD14RoundRect,0.250000X-0.450000X0.350000X-0.450000X-0.350000X0.450000X-0.350000X0.450000X0.350000X0*%
G04 #@! TD*
G04 #@! TA.AperFunction,SMDPad,CuDef*
%ADD15RoundRect,0.250000X0.350000X0.450000X-0.350000X0.450000X-0.350000X-0.450000X0.350000X-0.450000X0*%
G04 #@! TD*
G04 #@! TA.AperFunction,SMDPad,CuDef*
%ADD16RoundRect,0.250000X0.337500X0.475000X-0.337500X0.475000X-0.337500X-0.475000X0.337500X-0.475000X0*%
G04 #@! TD*
G04 #@! TA.AperFunction,SMDPad,CuDef*
%ADD17R,2.900000X5.400000*%
G04 #@! TD*
G04 #@! TA.AperFunction,SMDPad,CuDef*
%ADD18RoundRect,0.150000X0.150000X-0.737500X0.150000X0.737500X-0.150000X0.737500X-0.150000X-0.737500X0*%
G04 #@! TD*
G04 #@! TA.AperFunction,ComponentPad*
%ADD19C,0.500000*%
G04 #@! TD*
G04 #@! TA.AperFunction,ComponentPad*
%ADD20C,2.500000*%
G04 #@! TD*
G04 #@! TA.AperFunction,SMDPad,CuDef*
%ADD21R,4.900000X2.950000*%
G04 #@! TD*
G04 #@! TA.AperFunction,SMDPad,CuDef*
%ADD22RoundRect,0.250000X0.475000X-0.337500X0.475000X0.337500X-0.475000X0.337500X-0.475000X-0.337500X0*%
G04 #@! TD*
G04 #@! TA.AperFunction,SMDPad,CuDef*
%ADD23RoundRect,0.250000X0.450000X-0.350000X0.450000X0.350000X-0.450000X0.350000X-0.450000X-0.350000X0*%
G04 #@! TD*
G04 #@! TA.AperFunction,ComponentPad*
%ADD24RoundRect,0.250000X-0.845000X0.620000X-0.845000X-0.620000X0.845000X-0.620000X0.845000X0.620000X0*%
G04 #@! TD*
G04 #@! TA.AperFunction,ComponentPad*
%ADD25O,2.190000X1.740000*%
G04 #@! TD*
G04 #@! TA.AperFunction,ComponentPad*
%ADD26RoundRect,0.250000X0.845000X-0.620000X0.845000X0.620000X-0.845000X0.620000X-0.845000X-0.620000X0*%
G04 #@! TD*
G04 #@! TA.AperFunction,SMDPad,CuDef*
%ADD27RoundRect,0.250000X0.650000X-0.412500X0.650000X0.412500X-0.650000X0.412500X-0.650000X-0.412500X0*%
G04 #@! TD*
G04 #@! TA.AperFunction,ViaPad*
%ADD28C,0.800000*%
G04 #@! TD*
G04 #@! TA.AperFunction,Conductor*
%ADD29C,1.300000*%
G04 #@! TD*
G04 #@! TA.AperFunction,Conductor*
%ADD30C,0.600000*%
G04 #@! TD*
G04 #@! TA.AperFunction,Conductor*
%ADD31C,1.000000*%
G04 #@! TD*
G04 APERTURE END LIST*
D10*
X131500000Y-24600000D03*
X131500000Y-29400000D03*
D11*
X128562500Y-25000000D03*
X125437500Y-25000000D03*
D12*
X133437500Y-26000000D03*
X136562500Y-26000000D03*
D13*
X146399999Y-13999999D03*
X141599999Y-13999999D03*
D14*
X133000000Y-13000000D03*
X133000000Y-15000000D03*
D15*
X137000000Y-11000000D03*
X135000000Y-11000000D03*
D16*
X131037500Y-15000000D03*
X128962500Y-15000000D03*
D17*
X140799999Y-23999999D03*
X150499999Y-23999999D03*
D18*
X132095000Y-22562500D03*
X133365000Y-22562500D03*
X134635000Y-22562500D03*
X135905000Y-22562500D03*
X135905000Y-17437500D03*
X134635000Y-17437500D03*
X133365000Y-17437500D03*
X132095000Y-17437500D03*
D19*
X132050000Y-20650000D03*
X133350000Y-20650000D03*
X134650000Y-20650000D03*
X135950000Y-20650000D03*
D20*
X134000000Y-20000000D03*
D21*
X133999999Y-19999999D03*
D19*
X132050000Y-19350000D03*
X134650000Y-19350000D03*
X135950000Y-19350000D03*
D11*
X128562500Y-28000000D03*
X125437500Y-28000000D03*
D22*
X135000000Y-15037500D03*
X135000000Y-12962500D03*
D23*
X139000000Y-15000000D03*
X139000000Y-13000000D03*
D24*
X156000000Y-18500000D03*
D25*
X155999999Y-21039999D03*
D26*
X124520000Y-21270000D03*
D25*
X124519999Y-18729999D03*
D14*
X137000000Y-13000000D03*
X137000000Y-15000000D03*
D27*
X142000000Y-11562500D03*
X142000000Y-8437500D03*
D28*
X132000000Y-31000000D03*
X129000000Y-7000000D03*
X128000000Y-31000000D03*
X129000000Y-9000000D03*
X134000000Y-31000000D03*
X143000000Y-19000000D03*
X153000000Y-9000000D03*
X126000000Y-31000000D03*
X153000000Y-7000000D03*
X133000000Y-11000000D03*
X151000000Y-31000000D03*
X155000000Y-13000000D03*
X157000000Y-13000000D03*
X159000000Y-9000000D03*
X125000000Y-7000000D03*
X141000000Y-19000000D03*
X129000000Y-11000000D03*
X123000000Y-11000000D03*
X157000000Y-9000000D03*
X155000000Y-31000000D03*
X127000000Y-7000000D03*
X149000000Y-33000000D03*
X159000000Y-7000000D03*
X159000000Y-33000000D03*
X137000000Y-21000000D03*
X133000000Y-7000000D03*
X141000000Y-17000000D03*
X123000000Y-7000000D03*
X124000000Y-33000000D03*
X139000000Y-19000000D03*
X127000000Y-17000000D03*
X157000000Y-11000000D03*
X153000000Y-31000000D03*
X157000000Y-7000000D03*
X127000000Y-11000000D03*
X129000000Y-21000000D03*
X151000000Y-33000000D03*
X151000000Y-9000000D03*
X151000000Y-11000000D03*
X125000000Y-11000000D03*
X131000000Y-11000000D03*
X134000000Y-33000000D03*
X131000000Y-21000000D03*
X137000000Y-19000000D03*
X149000000Y-31000000D03*
X159000000Y-11000000D03*
X157000000Y-15000000D03*
X129000000Y-19000000D03*
X126000000Y-33000000D03*
X128000000Y-33000000D03*
X157000000Y-33000000D03*
X123000000Y-9000000D03*
X125000000Y-9000000D03*
X155000000Y-15000000D03*
X153000000Y-13000000D03*
X131000000Y-7000000D03*
X159000000Y-13000000D03*
X157000000Y-31000000D03*
X159000000Y-15000000D03*
X149000000Y-7000000D03*
X129000000Y-17000000D03*
X155000000Y-33000000D03*
X131000000Y-9000000D03*
X159000000Y-31000000D03*
X153000000Y-11000000D03*
X153000000Y-33000000D03*
X130000000Y-33000000D03*
X132000000Y-33000000D03*
X127000000Y-15000000D03*
X153000000Y-15000000D03*
X139000000Y-17000000D03*
X125500000Y-16500000D03*
X155000000Y-11000000D03*
X149000000Y-9000000D03*
X131000000Y-19000000D03*
X133000000Y-9000000D03*
X151000000Y-7000000D03*
X124000000Y-31000000D03*
X143000000Y-17000000D03*
X130000000Y-31000000D03*
X127000000Y-9000000D03*
X155000000Y-7000000D03*
X155000000Y-9000000D03*
D29*
X128562500Y-23562500D02*
X127500000Y-22500000D01*
X123000000Y-16000000D02*
X123000000Y-17210000D01*
X127500000Y-20500000D02*
X125730000Y-18730000D01*
D30*
X133365000Y-22562500D02*
X133365000Y-23335009D01*
X133365000Y-23335009D02*
X135000000Y-24970009D01*
D29*
X123000000Y-17210000D02*
X124520000Y-18730000D01*
X125730000Y-18730000D02*
X124520000Y-18730000D01*
X126000000Y-13000000D02*
X123000000Y-16000000D01*
X128562500Y-28000000D02*
X128562500Y-25000000D01*
X128562500Y-25000000D02*
X128562500Y-23562500D01*
X133000000Y-13000000D02*
X126000000Y-13000000D01*
D30*
X135000000Y-24970009D02*
X135000000Y-27000000D01*
X135000000Y-27000000D02*
X134000000Y-28000000D01*
D29*
X127500000Y-22500000D02*
X127500000Y-20500000D01*
D30*
X134000000Y-28000000D02*
X128562500Y-28000000D01*
X135905000Y-22562500D02*
X135905000Y-20695000D01*
X135905000Y-20695000D02*
X135950000Y-20650000D01*
D29*
X137000000Y-13000000D02*
X137000000Y-11000000D01*
X143000000Y-11000000D02*
X148000000Y-11000000D01*
X150500000Y-20500000D02*
X150500000Y-24000000D01*
X152500000Y-18500000D02*
X150500000Y-20500000D01*
D30*
X139000000Y-13000000D02*
X140600000Y-13000000D01*
X140600000Y-13000000D02*
X141600000Y-14000000D01*
D29*
X148000000Y-11000000D02*
X150500000Y-13500000D01*
D30*
X141600000Y-11962500D02*
X142000000Y-11562500D01*
D29*
X141600000Y-14000000D02*
X141600000Y-12400000D01*
D30*
X141600000Y-14000000D02*
X141600000Y-11962500D01*
D29*
X156000000Y-18500000D02*
X152500000Y-18500000D01*
X141600000Y-12400000D02*
X143000000Y-11000000D01*
X150500000Y-13500000D02*
X150500000Y-20500000D01*
D30*
X135000000Y-11000000D02*
X135000000Y-12962500D01*
X134635000Y-15402500D02*
X135000000Y-15037500D01*
X134635000Y-17437500D02*
X134635000Y-15402500D01*
X131037500Y-16380000D02*
X132095000Y-17437500D01*
X131037500Y-15000000D02*
X131037500Y-16380000D01*
D31*
X132900000Y-26000000D02*
X131500000Y-24600000D01*
X133437500Y-26000000D02*
X132900000Y-26000000D01*
D30*
X132095000Y-24005000D02*
X131500000Y-24600000D01*
X132095000Y-22562500D02*
X132095000Y-24005000D01*
X134635000Y-23135000D02*
X136562500Y-25062500D01*
D29*
X138562500Y-24000000D02*
X136562500Y-26000000D01*
X140800000Y-24000000D02*
X138562500Y-24000000D01*
D30*
X136562500Y-25062500D02*
X136562500Y-26000000D01*
X134635000Y-22562500D02*
X134635000Y-23135000D01*
X136562500Y-26000000D02*
X137050000Y-26000000D01*
D29*
X146400000Y-14000000D02*
X145500000Y-14900000D01*
X145500000Y-14900000D02*
X145500000Y-27000000D01*
X145500000Y-27000000D02*
X143100000Y-29400000D01*
X143100000Y-29400000D02*
X131500000Y-29400000D01*
D30*
X137000000Y-15000000D02*
X137000000Y-16342500D01*
X137000000Y-16342500D02*
X135905000Y-17437500D01*
D29*
X139000000Y-15000000D02*
X137000000Y-15000000D01*
D30*
X133365000Y-15365000D02*
X133000000Y-15000000D01*
X133365000Y-17437500D02*
X133365000Y-15365000D01*
G04 #@! TA.AperFunction,Conductor*
G36*
X129905263Y-14172316D02*
G01*
X129950048Y-14210736D01*
X129972430Y-14265332D01*
X129967501Y-14324132D01*
X129952113Y-14370574D01*
X129941500Y-14474455D01*
X129941500Y-14477659D01*
X129941500Y-14477660D01*
X129941500Y-15522338D01*
X129941500Y-15522357D01*
X129941501Y-15525544D01*
X129941825Y-15528721D01*
X129941826Y-15528729D01*
X129949700Y-15605810D01*
X129952113Y-15629426D01*
X129954272Y-15635943D01*
X129954274Y-15635950D01*
X130002209Y-15780610D01*
X130007885Y-15797738D01*
X130011732Y-15803976D01*
X130011735Y-15803981D01*
X130069531Y-15897682D01*
X130100970Y-15948652D01*
X130106162Y-15953844D01*
X130106163Y-15953845D01*
X130192095Y-16039777D01*
X130219409Y-16080654D01*
X130229000Y-16128872D01*
X130229000Y-16288903D01*
X130229000Y-16471097D01*
X130230574Y-16477993D01*
X130230575Y-16478002D01*
X130237591Y-16508742D01*
X130239957Y-16522667D01*
X130243489Y-16554008D01*
X130243490Y-16554015D01*
X130244283Y-16561047D01*
X130246618Y-16567720D01*
X130246620Y-16567729D01*
X130257035Y-16597494D01*
X130260945Y-16611065D01*
X130267965Y-16641821D01*
X130267968Y-16641831D01*
X130269541Y-16648720D01*
X130283614Y-16677942D01*
X130286296Y-16683512D01*
X130291703Y-16696566D01*
X130302119Y-16726335D01*
X130302121Y-16726339D01*
X130304457Y-16733015D01*
X130308219Y-16739003D01*
X130308221Y-16739006D01*
X130325000Y-16765709D01*
X130331831Y-16778068D01*
X130348591Y-16812870D01*
X130372669Y-16843062D01*
X130380843Y-16854583D01*
X130397622Y-16881286D01*
X130401389Y-16887281D01*
X130406397Y-16892288D01*
X130406397Y-16892289D01*
X131249595Y-17735487D01*
X131276909Y-17776364D01*
X131286500Y-17824582D01*
X131286500Y-18241502D01*
X131289438Y-18278831D01*
X131335855Y-18438601D01*
X131420547Y-18581807D01*
X131538193Y-18699453D01*
X131681399Y-18784145D01*
X131841169Y-18830562D01*
X131878498Y-18833500D01*
X132309033Y-18833500D01*
X132311502Y-18833500D01*
X132348831Y-18830562D01*
X132508601Y-18784145D01*
X132651807Y-18699453D01*
X132654739Y-18696520D01*
X132702513Y-18674039D01*
X132757487Y-18674039D01*
X132805260Y-18696520D01*
X132808193Y-18699453D01*
X132951399Y-18784145D01*
X133111169Y-18830562D01*
X133148498Y-18833500D01*
X133579033Y-18833500D01*
X133581502Y-18833500D01*
X133618831Y-18830562D01*
X133778601Y-18784145D01*
X133921807Y-18699453D01*
X133924739Y-18696520D01*
X133972513Y-18674039D01*
X134027487Y-18674039D01*
X134075260Y-18696520D01*
X134078193Y-18699453D01*
X134221399Y-18784145D01*
X134381169Y-18830562D01*
X134418498Y-18833500D01*
X134849033Y-18833500D01*
X134851502Y-18833500D01*
X134888831Y-18830562D01*
X135048601Y-18784145D01*
X135191807Y-18699453D01*
X135194739Y-18696520D01*
X135242513Y-18674039D01*
X135297487Y-18674039D01*
X135345260Y-18696520D01*
X135348193Y-18699453D01*
X135491399Y-18784145D01*
X135651169Y-18830562D01*
X135688498Y-18833500D01*
X136119033Y-18833500D01*
X136121502Y-18833500D01*
X136158831Y-18830562D01*
X136318601Y-18784145D01*
X136461807Y-18699453D01*
X136579453Y-18581807D01*
X136664145Y-18438601D01*
X136710562Y-18278831D01*
X136713500Y-18241502D01*
X136713500Y-17824582D01*
X136723091Y-17776364D01*
X136750405Y-17735487D01*
X137603801Y-16882091D01*
X137603803Y-16882089D01*
X137603802Y-16882089D01*
X137636111Y-16849781D01*
X137656656Y-16817082D01*
X137664830Y-16805562D01*
X137688909Y-16775369D01*
X137705664Y-16740573D01*
X137712490Y-16728223D01*
X137733043Y-16695515D01*
X137745801Y-16659053D01*
X137751202Y-16646013D01*
X137767959Y-16611220D01*
X137776551Y-16573571D01*
X137780459Y-16560006D01*
X137793217Y-16523547D01*
X137797540Y-16485164D01*
X137799900Y-16471267D01*
X137808500Y-16433596D01*
X137808500Y-16284500D01*
X137825381Y-16221500D01*
X137871500Y-16175381D01*
X137934500Y-16158500D01*
X139050647Y-16158500D01*
X139053560Y-16158500D01*
X139213786Y-16143653D01*
X139320432Y-16113309D01*
X139354915Y-16108499D01*
X139497338Y-16108499D01*
X139500544Y-16108499D01*
X139604426Y-16097887D01*
X139772738Y-16042115D01*
X139923652Y-15949030D01*
X140049030Y-15823652D01*
X140142115Y-15672738D01*
X140164292Y-15605808D01*
X140194706Y-15556442D01*
X140244010Y-15525922D01*
X140301760Y-15520715D01*
X140355728Y-15541922D01*
X140394483Y-15585054D01*
X140395963Y-15587765D01*
X140399111Y-15596204D01*
X140404508Y-15603414D01*
X140404510Y-15603417D01*
X140461077Y-15678981D01*
X140486739Y-15713261D01*
X140493950Y-15718659D01*
X140584192Y-15786214D01*
X140603796Y-15800889D01*
X140740799Y-15851989D01*
X140801362Y-15858500D01*
X142395269Y-15858500D01*
X142398638Y-15858500D01*
X142459201Y-15851989D01*
X142596204Y-15800889D01*
X142713261Y-15713261D01*
X142800889Y-15596204D01*
X142806200Y-15581964D01*
X142833063Y-15539051D01*
X142874654Y-15510173D01*
X142924254Y-15500000D01*
X144215500Y-15500000D01*
X144278500Y-15516881D01*
X144324619Y-15563000D01*
X144341500Y-15626000D01*
X144341500Y-20374000D01*
X144324619Y-20437000D01*
X144278500Y-20483119D01*
X144215500Y-20500000D01*
X138000000Y-20500000D01*
X138000000Y-20516590D01*
X138000000Y-21874000D01*
X137983119Y-21937000D01*
X137937000Y-21983119D01*
X137874000Y-22000000D01*
X135569500Y-22000000D01*
X135506500Y-21983119D01*
X135460381Y-21937000D01*
X135443500Y-21874000D01*
X135443500Y-21760968D01*
X135443500Y-21758498D01*
X135440562Y-21721169D01*
X135394145Y-21561399D01*
X135309453Y-21418193D01*
X135191807Y-21300547D01*
X135102974Y-21248011D01*
X135055426Y-21219891D01*
X135055424Y-21219890D01*
X135048601Y-21215855D01*
X135040989Y-21213643D01*
X135040988Y-21213643D01*
X134895007Y-21171232D01*
X134895004Y-21171231D01*
X134888831Y-21169438D01*
X134882424Y-21168933D01*
X134882420Y-21168933D01*
X134853958Y-21166693D01*
X134853950Y-21166692D01*
X134851502Y-21166500D01*
X134418498Y-21166500D01*
X134416050Y-21166692D01*
X134416041Y-21166693D01*
X134387579Y-21168933D01*
X134387574Y-21168933D01*
X134381169Y-21169438D01*
X134374997Y-21171231D01*
X134374992Y-21171232D01*
X134229011Y-21213643D01*
X134229007Y-21213644D01*
X134221399Y-21215855D01*
X134214578Y-21219888D01*
X134214573Y-21219891D01*
X134085021Y-21296508D01*
X134085015Y-21296511D01*
X134078193Y-21300547D01*
X134075258Y-21303481D01*
X134027485Y-21325961D01*
X133972515Y-21325961D01*
X133924741Y-21303481D01*
X133921807Y-21300547D01*
X133914979Y-21296509D01*
X133914978Y-21296508D01*
X133785426Y-21219891D01*
X133785424Y-21219890D01*
X133778601Y-21215855D01*
X133770989Y-21213643D01*
X133770988Y-21213643D01*
X133625007Y-21171232D01*
X133625004Y-21171231D01*
X133618831Y-21169438D01*
X133612424Y-21168933D01*
X133612420Y-21168933D01*
X133583958Y-21166693D01*
X133583950Y-21166692D01*
X133581502Y-21166500D01*
X133148498Y-21166500D01*
X133146050Y-21166692D01*
X133146041Y-21166693D01*
X133117579Y-21168933D01*
X133117574Y-21168933D01*
X133111169Y-21169438D01*
X133104997Y-21171231D01*
X133104992Y-21171232D01*
X132959011Y-21213643D01*
X132959007Y-21213644D01*
X132951399Y-21215855D01*
X132944578Y-21219888D01*
X132944573Y-21219891D01*
X132815021Y-21296508D01*
X132815015Y-21296511D01*
X132808193Y-21300547D01*
X132805258Y-21303481D01*
X132757485Y-21325961D01*
X132702515Y-21325961D01*
X132654741Y-21303481D01*
X132651807Y-21300547D01*
X132644979Y-21296509D01*
X132644978Y-21296508D01*
X132515426Y-21219891D01*
X132515424Y-21219890D01*
X132508601Y-21215855D01*
X132500989Y-21213643D01*
X132500988Y-21213643D01*
X132355007Y-21171232D01*
X132355004Y-21171231D01*
X132348831Y-21169438D01*
X132342424Y-21168933D01*
X132342420Y-21168933D01*
X132313958Y-21166693D01*
X132313950Y-21166692D01*
X132311502Y-21166500D01*
X131878498Y-21166500D01*
X131876050Y-21166692D01*
X131876041Y-21166693D01*
X131847579Y-21168933D01*
X131847574Y-21168933D01*
X131841169Y-21169438D01*
X131834997Y-21171231D01*
X131834992Y-21171232D01*
X131689011Y-21213643D01*
X131689007Y-21213644D01*
X131681399Y-21215855D01*
X131674578Y-21219888D01*
X131674573Y-21219891D01*
X131545020Y-21296509D01*
X131545017Y-21296511D01*
X131538193Y-21300547D01*
X131532588Y-21306151D01*
X131532584Y-21306155D01*
X131426155Y-21412584D01*
X131426151Y-21412588D01*
X131420547Y-21418193D01*
X131416511Y-21425017D01*
X131416509Y-21425020D01*
X131339891Y-21554573D01*
X131339888Y-21554578D01*
X131335855Y-21561399D01*
X131333644Y-21569007D01*
X131333643Y-21569011D01*
X131291232Y-21714992D01*
X131291231Y-21714997D01*
X131289438Y-21721169D01*
X131286500Y-21758498D01*
X131286500Y-21760968D01*
X131286500Y-21874000D01*
X131269619Y-21937000D01*
X131223500Y-21983119D01*
X131160500Y-22000000D01*
X128784500Y-22000000D01*
X128721500Y-21983119D01*
X128675381Y-21937000D01*
X128658500Y-21874000D01*
X128658500Y-20529691D01*
X128658634Y-20523872D01*
X128658971Y-20516590D01*
X128662222Y-20446267D01*
X128660929Y-20437000D01*
X128651491Y-20369340D01*
X128650821Y-20363578D01*
X128643653Y-20286214D01*
X128638674Y-20268715D01*
X128635071Y-20251634D01*
X128633364Y-20239394D01*
X128633363Y-20239391D01*
X128632559Y-20233624D01*
X128607863Y-20159941D01*
X128606154Y-20154421D01*
X128586492Y-20085314D01*
X128586491Y-20085311D01*
X128584897Y-20079709D01*
X128576785Y-20063419D01*
X128570114Y-20047316D01*
X128564329Y-20030053D01*
X128526521Y-19962177D01*
X128523813Y-19957038D01*
X128489196Y-19887516D01*
X128482140Y-19878173D01*
X128478233Y-19872999D01*
X128468707Y-19858380D01*
X128459854Y-19842485D01*
X128410225Y-19782720D01*
X128406616Y-19778163D01*
X128363321Y-19720829D01*
X128363319Y-19720826D01*
X128359810Y-19716180D01*
X128355507Y-19712257D01*
X128355504Y-19712254D01*
X128302398Y-19663842D01*
X128298189Y-19659822D01*
X126570176Y-17931809D01*
X126566156Y-17927600D01*
X126517745Y-17874495D01*
X126517742Y-17874492D01*
X126513820Y-17870190D01*
X126509173Y-17866681D01*
X126509170Y-17866678D01*
X126451835Y-17823382D01*
X126447271Y-17819767D01*
X126391995Y-17773866D01*
X126391993Y-17773865D01*
X126387515Y-17770146D01*
X126382426Y-17767311D01*
X126382424Y-17767310D01*
X126371618Y-17761291D01*
X126357004Y-17751769D01*
X126355126Y-17750351D01*
X126342484Y-17740804D01*
X126337275Y-17738210D01*
X126337265Y-17738204D01*
X126272940Y-17706174D01*
X126267804Y-17703467D01*
X126199947Y-17665671D01*
X126194430Y-17663821D01*
X126194417Y-17663816D01*
X126182687Y-17659885D01*
X126166573Y-17653210D01*
X126155509Y-17647701D01*
X126155507Y-17647700D01*
X126150291Y-17645103D01*
X126144687Y-17643508D01*
X126144686Y-17643508D01*
X126075583Y-17623846D01*
X126070025Y-17622125D01*
X126001895Y-17599290D01*
X126001887Y-17599288D01*
X125996376Y-17597441D01*
X125978356Y-17594927D01*
X125961286Y-17591326D01*
X125949397Y-17587943D01*
X125949392Y-17587942D01*
X125943786Y-17586347D01*
X125937984Y-17585809D01*
X125937977Y-17585808D01*
X125866456Y-17579180D01*
X125860678Y-17578510D01*
X125789506Y-17568583D01*
X125789503Y-17568582D01*
X125783733Y-17567778D01*
X125777913Y-17568047D01*
X125706128Y-17571366D01*
X125700309Y-17571500D01*
X125530560Y-17571500D01*
X125469111Y-17555500D01*
X125319528Y-17471938D01*
X125319525Y-17471936D01*
X125314859Y-17469330D01*
X125309821Y-17467550D01*
X125309819Y-17467549D01*
X125098652Y-17392939D01*
X125098650Y-17392938D01*
X125093608Y-17391157D01*
X125088338Y-17390253D01*
X125088333Y-17390252D01*
X124867596Y-17352403D01*
X124867592Y-17352402D01*
X124862328Y-17351500D01*
X124856980Y-17351500D01*
X124832057Y-17351500D01*
X124783839Y-17341909D01*
X124742961Y-17314595D01*
X124195404Y-16767037D01*
X124168091Y-16726160D01*
X124158500Y-16677942D01*
X124158500Y-16532057D01*
X124168091Y-16483839D01*
X124195405Y-16442962D01*
X126442961Y-14195405D01*
X126483838Y-14168091D01*
X126532056Y-14158500D01*
X129847897Y-14158500D01*
X129905263Y-14172316D01*
G37*
G04 #@! TD.AperFunction*
G04 #@! TA.AperFunction,Conductor*
G36*
X159936500Y-5017381D02*
G01*
X159982619Y-5063500D01*
X159999500Y-5126500D01*
X159999500Y-34873500D01*
X159982619Y-34936500D01*
X159936500Y-34982619D01*
X159873500Y-34999500D01*
X120126500Y-34999500D01*
X120063500Y-34982619D01*
X120017381Y-34936500D01*
X120000500Y-34873500D01*
X120000500Y-17263733D01*
X121837778Y-17263733D01*
X121838582Y-17269503D01*
X121838583Y-17269506D01*
X121848510Y-17340678D01*
X121849180Y-17346456D01*
X121855808Y-17417977D01*
X121855809Y-17417984D01*
X121856347Y-17423786D01*
X121857942Y-17429392D01*
X121857943Y-17429397D01*
X121861326Y-17441286D01*
X121864927Y-17458356D01*
X121867441Y-17476376D01*
X121869288Y-17481887D01*
X121869290Y-17481895D01*
X121892125Y-17550025D01*
X121893846Y-17555583D01*
X121903053Y-17587943D01*
X121915103Y-17630291D01*
X121917700Y-17635507D01*
X121917701Y-17635509D01*
X121923210Y-17646573D01*
X121929885Y-17662687D01*
X121933816Y-17674417D01*
X121933821Y-17674430D01*
X121935671Y-17679947D01*
X121973461Y-17747792D01*
X121976174Y-17752940D01*
X122008204Y-17817265D01*
X122008210Y-17817275D01*
X122010804Y-17822484D01*
X122021769Y-17837004D01*
X122031291Y-17851618D01*
X122040146Y-17867515D01*
X122043865Y-17871993D01*
X122043866Y-17871995D01*
X122089767Y-17927271D01*
X122093381Y-17931834D01*
X122140190Y-17993820D01*
X122144492Y-17997741D01*
X122144495Y-17997745D01*
X122197590Y-18046146D01*
X122201801Y-18050167D01*
X122882041Y-18730408D01*
X122908304Y-18768824D01*
X122918831Y-18814154D01*
X122922494Y-18900374D01*
X122922494Y-18900380D01*
X122922722Y-18905727D01*
X122923849Y-18910960D01*
X122923850Y-18910961D01*
X122971030Y-19129880D01*
X122971031Y-19129886D01*
X122972159Y-19135116D01*
X122974155Y-19140085D01*
X122974156Y-19140086D01*
X123057656Y-19347887D01*
X123057659Y-19347894D01*
X123059651Y-19352850D01*
X123062454Y-19357403D01*
X123062456Y-19357406D01*
X123118841Y-19448981D01*
X123182683Y-19552665D01*
X123337714Y-19728815D01*
X123520284Y-19876230D01*
X123725141Y-19990670D01*
X123946392Y-20068843D01*
X124177672Y-20108500D01*
X124800892Y-20108500D01*
X124803558Y-20108500D01*
X124978810Y-20093584D01*
X125205894Y-20034456D01*
X125257491Y-20011131D01*
X125306712Y-19999974D01*
X125356368Y-20009032D01*
X125398484Y-20036851D01*
X126304595Y-20942962D01*
X126331909Y-20983839D01*
X126341500Y-21032057D01*
X126341500Y-22470309D01*
X126341365Y-22476128D01*
X126337778Y-22553733D01*
X126338582Y-22559503D01*
X126338583Y-22559506D01*
X126348510Y-22630678D01*
X126349180Y-22636456D01*
X126355808Y-22707977D01*
X126355809Y-22707984D01*
X126356347Y-22713786D01*
X126357942Y-22719392D01*
X126357943Y-22719397D01*
X126361326Y-22731286D01*
X126364927Y-22748356D01*
X126367441Y-22766376D01*
X126369288Y-22771887D01*
X126369290Y-22771895D01*
X126392125Y-22840025D01*
X126393845Y-22845582D01*
X126415103Y-22920291D01*
X126417700Y-22925507D01*
X126417701Y-22925509D01*
X126423210Y-22936573D01*
X126429885Y-22952687D01*
X126433816Y-22964417D01*
X126433821Y-22964430D01*
X126435671Y-22969947D01*
X126473461Y-23037792D01*
X126476174Y-23042940D01*
X126508204Y-23107265D01*
X126508210Y-23107275D01*
X126510804Y-23112484D01*
X126521769Y-23127004D01*
X126531291Y-23141618D01*
X126540146Y-23157515D01*
X126543865Y-23161993D01*
X126543866Y-23161995D01*
X126589767Y-23217271D01*
X126593382Y-23221835D01*
X126636678Y-23279170D01*
X126636681Y-23279173D01*
X126640190Y-23283820D01*
X126644492Y-23287742D01*
X126644495Y-23287745D01*
X126697600Y-23336156D01*
X126701809Y-23340176D01*
X126963095Y-23601462D01*
X126990409Y-23642339D01*
X127000000Y-23690557D01*
X127000000Y-30500000D01*
X129998249Y-30500000D01*
X130064395Y-30518758D01*
X130102261Y-30542115D01*
X130270573Y-30597887D01*
X130374454Y-30608500D01*
X132622341Y-30608500D01*
X132625546Y-30608500D01*
X132729427Y-30597887D01*
X132828991Y-30564895D01*
X132868624Y-30558500D01*
X143070309Y-30558500D01*
X143076128Y-30558634D01*
X143153733Y-30562222D01*
X143159510Y-30561416D01*
X143159512Y-30561416D01*
X143230660Y-30551491D01*
X143236420Y-30550821D01*
X143313786Y-30543653D01*
X143331283Y-30538673D01*
X143348350Y-30535073D01*
X143366376Y-30532559D01*
X143440073Y-30507857D01*
X143445583Y-30506153D01*
X143446739Y-30505823D01*
X143450331Y-30504803D01*
X143484787Y-30500000D01*
X146986836Y-30500000D01*
X147000000Y-30500000D01*
X147971282Y-27586155D01*
X147997608Y-27541217D01*
X148039859Y-27510764D01*
X148090816Y-27500000D01*
X151483410Y-27500000D01*
X151500000Y-27500000D01*
X151500000Y-27334500D01*
X151516881Y-27271500D01*
X151563000Y-27225381D01*
X151626000Y-27208500D01*
X151995269Y-27208500D01*
X151998638Y-27208500D01*
X152059201Y-27201989D01*
X152196204Y-27150889D01*
X152313261Y-27063261D01*
X152400889Y-26946204D01*
X152451989Y-26809201D01*
X152458500Y-26748638D01*
X152458500Y-21251362D01*
X152451989Y-21190799D01*
X152400889Y-21053796D01*
X152384615Y-21032057D01*
X152318659Y-20943950D01*
X152313261Y-20936739D01*
X152306049Y-20931340D01*
X152203417Y-20854510D01*
X152203414Y-20854508D01*
X152196204Y-20849111D01*
X152187765Y-20845963D01*
X152187757Y-20845959D01*
X152083504Y-20807074D01*
X152032312Y-20771531D01*
X152004416Y-20715802D01*
X152006641Y-20653520D01*
X152038439Y-20599927D01*
X152942965Y-19695401D01*
X152983839Y-19668091D01*
X153032057Y-19658500D01*
X154568628Y-19658500D01*
X154616846Y-19668091D01*
X154657723Y-19695404D01*
X154681348Y-19719030D01*
X154687596Y-19722883D01*
X154687595Y-19722883D01*
X154826018Y-19808264D01*
X154826020Y-19808265D01*
X154832262Y-19812115D01*
X155000574Y-19867887D01*
X155104455Y-19878500D01*
X156895544Y-19878499D01*
X156999426Y-19867887D01*
X157167738Y-19812115D01*
X157318652Y-19719030D01*
X157444030Y-19593652D01*
X157537115Y-19442738D01*
X157592887Y-19274426D01*
X157603500Y-19170545D01*
X157603499Y-17829456D01*
X157592887Y-17725574D01*
X157537115Y-17557262D01*
X157532651Y-17550025D01*
X157457519Y-17428217D01*
X157444030Y-17406348D01*
X157318652Y-17280970D01*
X157281271Y-17257913D01*
X157173981Y-17191735D01*
X157173976Y-17191732D01*
X157167738Y-17187885D01*
X157160776Y-17185578D01*
X157160774Y-17185577D01*
X157005951Y-17134275D01*
X157005949Y-17134274D01*
X156999426Y-17132113D01*
X156992589Y-17131414D01*
X156992587Y-17131414D01*
X156898729Y-17121825D01*
X156898723Y-17121824D01*
X156895545Y-17121500D01*
X156892339Y-17121500D01*
X155107661Y-17121500D01*
X155107641Y-17121500D01*
X155104456Y-17121501D01*
X155101279Y-17121825D01*
X155101270Y-17121826D01*
X155007411Y-17131414D01*
X155007405Y-17131415D01*
X155000574Y-17132113D01*
X154994058Y-17134271D01*
X154994049Y-17134274D01*
X154839225Y-17185577D01*
X154839219Y-17185579D01*
X154832262Y-17187885D01*
X154826026Y-17191730D01*
X154826018Y-17191735D01*
X154687595Y-17277116D01*
X154687590Y-17277119D01*
X154681348Y-17280970D01*
X154676158Y-17286159D01*
X154676154Y-17286163D01*
X154657723Y-17304595D01*
X154616846Y-17331909D01*
X154568628Y-17341500D01*
X152529691Y-17341500D01*
X152523872Y-17341366D01*
X152452085Y-17338047D01*
X152446267Y-17337778D01*
X152440498Y-17338582D01*
X152440491Y-17338583D01*
X152369319Y-17348510D01*
X152363542Y-17349180D01*
X152292011Y-17355809D01*
X152292002Y-17355810D01*
X152286214Y-17356347D01*
X152280623Y-17357937D01*
X152280610Y-17357940D01*
X152268702Y-17361328D01*
X152251645Y-17364926D01*
X152233624Y-17367441D01*
X152228103Y-17369291D01*
X152228100Y-17369292D01*
X152159979Y-17392123D01*
X152154423Y-17393843D01*
X152085316Y-17413506D01*
X152085300Y-17413511D01*
X152079709Y-17415103D01*
X152074501Y-17417695D01*
X152074496Y-17417698D01*
X152063416Y-17423215D01*
X152047311Y-17429885D01*
X152035585Y-17433815D01*
X152035569Y-17433821D01*
X152030053Y-17435671D01*
X152024967Y-17438503D01*
X152024962Y-17438506D01*
X151962181Y-17473475D01*
X151957033Y-17476188D01*
X151892730Y-17508207D01*
X151892724Y-17508210D01*
X151887516Y-17510804D01*
X151882879Y-17514305D01*
X151882862Y-17514316D01*
X151872985Y-17521775D01*
X151858388Y-17531287D01*
X151853492Y-17534014D01*
X151845822Y-17538286D01*
X151783056Y-17554209D01*
X151720668Y-17536852D01*
X151675141Y-17490800D01*
X151658500Y-17428217D01*
X151658500Y-13529691D01*
X151658634Y-13523872D01*
X151659849Y-13497588D01*
X151662222Y-13446267D01*
X151651491Y-13369340D01*
X151650821Y-13363578D01*
X151643653Y-13286214D01*
X151638674Y-13268715D01*
X151635071Y-13251634D01*
X151633364Y-13239394D01*
X151633363Y-13239391D01*
X151632559Y-13233624D01*
X151607863Y-13159941D01*
X151606154Y-13154421D01*
X151586492Y-13085314D01*
X151586491Y-13085311D01*
X151584897Y-13079709D01*
X151576785Y-13063419D01*
X151570114Y-13047316D01*
X151564329Y-13030053D01*
X151526521Y-12962177D01*
X151523812Y-12957036D01*
X151513208Y-12935739D01*
X151500000Y-12879579D01*
X151500000Y-12515558D01*
X151500000Y-12500000D01*
X151466116Y-12477411D01*
X150425481Y-11783654D01*
X150406278Y-11767911D01*
X148840176Y-10201809D01*
X148836156Y-10197600D01*
X148787745Y-10144495D01*
X148787742Y-10144492D01*
X148783820Y-10140190D01*
X148779173Y-10136681D01*
X148779170Y-10136678D01*
X148721835Y-10093382D01*
X148717271Y-10089767D01*
X148661995Y-10043866D01*
X148661992Y-10043864D01*
X148657515Y-10040146D01*
X148652426Y-10037311D01*
X148652424Y-10037310D01*
X148641618Y-10031291D01*
X148627004Y-10021769D01*
X148612484Y-10010804D01*
X148607275Y-10008210D01*
X148607265Y-10008204D01*
X148542940Y-9976174D01*
X148537804Y-9973467D01*
X148469947Y-9935671D01*
X148464430Y-9933821D01*
X148464417Y-9933816D01*
X148452687Y-9929885D01*
X148436573Y-9923210D01*
X148425509Y-9917701D01*
X148425507Y-9917700D01*
X148420291Y-9915103D01*
X148414687Y-9913508D01*
X148414686Y-9913508D01*
X148345583Y-9893846D01*
X148340025Y-9892125D01*
X148271895Y-9869290D01*
X148271887Y-9869288D01*
X148266376Y-9867441D01*
X148248356Y-9864927D01*
X148231286Y-9861326D01*
X148219397Y-9857943D01*
X148219392Y-9857942D01*
X148213786Y-9856347D01*
X148207984Y-9855809D01*
X148207977Y-9855808D01*
X148136456Y-9849180D01*
X148130678Y-9848510D01*
X148059506Y-9838583D01*
X148059503Y-9838582D01*
X148053733Y-9837778D01*
X148047913Y-9838047D01*
X147976128Y-9841366D01*
X147970309Y-9841500D01*
X143029691Y-9841500D01*
X143023872Y-9841366D01*
X142952085Y-9838047D01*
X142946267Y-9837778D01*
X142940498Y-9838582D01*
X142940491Y-9838583D01*
X142869319Y-9848510D01*
X142863542Y-9849180D01*
X142792011Y-9855809D01*
X142792002Y-9855810D01*
X142786214Y-9856347D01*
X142780623Y-9857937D01*
X142780610Y-9857940D01*
X142768702Y-9861328D01*
X142751645Y-9864926D01*
X142733624Y-9867441D01*
X142728103Y-9869291D01*
X142728100Y-9869292D01*
X142659979Y-9892123D01*
X142654423Y-9893843D01*
X142585316Y-9913506D01*
X142585300Y-9913511D01*
X142579709Y-9915103D01*
X142574501Y-9917695D01*
X142574496Y-9917698D01*
X142563416Y-9923215D01*
X142547311Y-9929885D01*
X142535585Y-9933815D01*
X142535569Y-9933821D01*
X142530053Y-9935671D01*
X142524967Y-9938503D01*
X142524962Y-9938506D01*
X142462181Y-9973475D01*
X142457033Y-9976188D01*
X142392730Y-10008207D01*
X142392724Y-10008210D01*
X142387516Y-10010804D01*
X142382879Y-10014305D01*
X142382862Y-10014316D01*
X142372985Y-10021775D01*
X142358384Y-10031289D01*
X142347573Y-10037311D01*
X142347566Y-10037315D01*
X142342485Y-10040146D01*
X142338014Y-10043858D01*
X142338006Y-10043864D01*
X142282719Y-10089773D01*
X142278159Y-10093384D01*
X142220833Y-10136675D01*
X142220825Y-10136682D01*
X142216180Y-10140190D01*
X142212257Y-10144492D01*
X142212256Y-10144494D01*
X142163853Y-10197589D01*
X142159834Y-10201797D01*
X142007036Y-10354595D01*
X141966159Y-10381909D01*
X141917941Y-10391500D01*
X141302661Y-10391500D01*
X141302641Y-10391500D01*
X141299456Y-10391501D01*
X141296279Y-10391825D01*
X141296270Y-10391826D01*
X141202411Y-10401414D01*
X141202405Y-10401415D01*
X141195574Y-10402113D01*
X141189058Y-10404271D01*
X141189049Y-10404274D01*
X141034225Y-10455577D01*
X141034219Y-10455579D01*
X141027262Y-10457885D01*
X141021026Y-10461730D01*
X141021018Y-10461735D01*
X140882595Y-10547116D01*
X140882590Y-10547119D01*
X140876348Y-10550970D01*
X140871158Y-10556159D01*
X140871154Y-10556163D01*
X140756163Y-10671154D01*
X140756159Y-10671158D01*
X140750970Y-10676348D01*
X140747119Y-10682590D01*
X140747116Y-10682595D01*
X140661735Y-10821018D01*
X140661730Y-10821026D01*
X140657885Y-10827262D01*
X140655579Y-10834219D01*
X140655577Y-10834225D01*
X140604275Y-10989048D01*
X140602113Y-10995574D01*
X140591500Y-11099455D01*
X140591500Y-11102661D01*
X140591500Y-11796647D01*
X140578283Y-11852825D01*
X140576175Y-11857057D01*
X140573469Y-11862190D01*
X140538508Y-11924957D01*
X140538502Y-11924969D01*
X140535671Y-11930053D01*
X140533821Y-11935569D01*
X140533815Y-11935585D01*
X140529885Y-11947311D01*
X140523215Y-11963416D01*
X140517698Y-11974496D01*
X140517695Y-11974501D01*
X140515103Y-11979709D01*
X140513511Y-11985300D01*
X140513506Y-11985316D01*
X140493843Y-12054423D01*
X140492123Y-12059980D01*
X140476853Y-12105541D01*
X140450500Y-12150385D01*
X140408278Y-12180764D01*
X140357384Y-12191500D01*
X140116372Y-12191500D01*
X140068154Y-12181909D01*
X140027277Y-12154595D01*
X139928845Y-12056163D01*
X139928844Y-12056162D01*
X139923652Y-12050970D01*
X139901506Y-12037310D01*
X139778981Y-11961735D01*
X139778976Y-11961732D01*
X139772738Y-11957885D01*
X139765776Y-11955578D01*
X139765774Y-11955577D01*
X139610951Y-11904275D01*
X139610949Y-11904274D01*
X139604426Y-11902113D01*
X139597589Y-11901414D01*
X139597587Y-11901414D01*
X139503729Y-11891825D01*
X139503723Y-11891824D01*
X139500545Y-11891500D01*
X139497339Y-11891500D01*
X138502661Y-11891500D01*
X138502641Y-11891500D01*
X138499456Y-11891501D01*
X138496279Y-11891825D01*
X138496270Y-11891826D01*
X138402411Y-11901414D01*
X138402405Y-11901415D01*
X138395574Y-11902113D01*
X138389058Y-11904271D01*
X138389049Y-11904274D01*
X138234225Y-11955577D01*
X138234219Y-11955579D01*
X138227262Y-11957885D01*
X138221026Y-11961730D01*
X138221018Y-11961735D01*
X138082595Y-12047116D01*
X138082590Y-12047119D01*
X138076348Y-12050970D01*
X138071158Y-12056159D01*
X138071154Y-12056163D01*
X137956163Y-12171154D01*
X137956159Y-12171158D01*
X137950970Y-12176348D01*
X137947119Y-12182590D01*
X137947116Y-12182595D01*
X137861735Y-12321018D01*
X137861730Y-12321026D01*
X137857885Y-12327262D01*
X137855579Y-12334219D01*
X137855577Y-12334225D01*
X137804275Y-12489048D01*
X137802113Y-12495574D01*
X137801414Y-12502408D01*
X137801414Y-12502412D01*
X137791825Y-12596270D01*
X137791500Y-12599455D01*
X137791500Y-12602659D01*
X137791500Y-12602660D01*
X137791500Y-13397338D01*
X137791500Y-13397357D01*
X137791501Y-13400544D01*
X137791825Y-13403721D01*
X137791826Y-13403729D01*
X137797671Y-13460951D01*
X137802113Y-13504426D01*
X137804272Y-13510943D01*
X137804274Y-13510950D01*
X137857885Y-13672738D01*
X137856015Y-13673357D01*
X137865471Y-13723729D01*
X137846011Y-13783193D01*
X137800348Y-13825966D01*
X137739740Y-13841500D01*
X136946440Y-13841500D01*
X136943551Y-13841767D01*
X136943544Y-13841768D01*
X136792011Y-13855809D01*
X136792002Y-13855810D01*
X136786214Y-13856347D01*
X136780614Y-13857940D01*
X136780610Y-13857941D01*
X136679566Y-13886690D01*
X136645086Y-13891500D01*
X136502662Y-13891500D01*
X136502642Y-13891500D01*
X136499456Y-13891501D01*
X136496280Y-13891825D01*
X136496269Y-13891826D01*
X136402411Y-13901414D01*
X136402405Y-13901415D01*
X136395574Y-13902113D01*
X136389058Y-13904271D01*
X136389049Y-13904274D01*
X136234217Y-13955580D01*
X136234214Y-13955581D01*
X136231426Y-13956505D01*
X136231421Y-13956506D01*
X136227262Y-13957885D01*
X136227051Y-13957250D01*
X136166997Y-13967471D01*
X136104785Y-13943577D01*
X136063463Y-13891291D01*
X136054590Y-13825241D01*
X136075994Y-13774863D01*
X136074030Y-13773652D01*
X136135893Y-13673357D01*
X136167115Y-13622738D01*
X136222887Y-13454426D01*
X136233500Y-13350545D01*
X136233499Y-12574456D01*
X136222887Y-12470574D01*
X136167115Y-12302262D01*
X136074030Y-12151348D01*
X135980299Y-12057617D01*
X135950580Y-12010466D01*
X135944110Y-11955108D01*
X135962154Y-11902375D01*
X136038261Y-11778987D01*
X136038262Y-11778984D01*
X136042115Y-11772738D01*
X136097887Y-11604426D01*
X136108500Y-11500545D01*
X136108499Y-10499456D01*
X136097887Y-10395574D01*
X136042115Y-10227262D01*
X136026415Y-10201809D01*
X135958454Y-10091627D01*
X135949030Y-10076348D01*
X135823652Y-9950970D01*
X135803445Y-9938506D01*
X135678981Y-9861735D01*
X135678976Y-9861732D01*
X135672738Y-9857885D01*
X135665776Y-9855578D01*
X135665774Y-9855577D01*
X135510951Y-9804275D01*
X135510949Y-9804274D01*
X135504426Y-9802113D01*
X135497589Y-9801414D01*
X135497587Y-9801414D01*
X135403729Y-9791825D01*
X135403723Y-9791824D01*
X135400545Y-9791500D01*
X135397339Y-9791500D01*
X134602661Y-9791500D01*
X134602641Y-9791500D01*
X134599456Y-9791501D01*
X134596279Y-9791825D01*
X134596270Y-9791826D01*
X134502411Y-9801414D01*
X134502405Y-9801415D01*
X134495574Y-9802113D01*
X134489058Y-9804271D01*
X134489049Y-9804274D01*
X134334225Y-9855577D01*
X134334219Y-9855579D01*
X134327262Y-9857885D01*
X134321026Y-9861730D01*
X134321018Y-9861735D01*
X134182595Y-9947116D01*
X134182590Y-9947119D01*
X134176348Y-9950970D01*
X134171158Y-9956159D01*
X134171154Y-9956163D01*
X134056163Y-10071154D01*
X134056159Y-10071158D01*
X134050970Y-10076348D01*
X134047119Y-10082590D01*
X134047116Y-10082595D01*
X133961735Y-10221018D01*
X133961730Y-10221026D01*
X133957885Y-10227262D01*
X133955579Y-10234219D01*
X133955577Y-10234225D01*
X133906641Y-10381909D01*
X133902113Y-10395574D01*
X133901414Y-10402408D01*
X133901414Y-10402412D01*
X133891825Y-10496270D01*
X133891500Y-10499455D01*
X133891500Y-10502659D01*
X133891500Y-10502660D01*
X133891500Y-11497338D01*
X133891500Y-11497357D01*
X133891501Y-11500544D01*
X133902113Y-11604426D01*
X133904272Y-11610943D01*
X133904274Y-11610950D01*
X133955577Y-11765774D01*
X133957885Y-11772738D01*
X133961733Y-11778977D01*
X133961737Y-11778985D01*
X133976812Y-11803425D01*
X133995552Y-11867373D01*
X133979055Y-11931935D01*
X133931935Y-11979055D01*
X133867373Y-11995552D01*
X133803425Y-11976812D01*
X133778985Y-11961737D01*
X133778977Y-11961733D01*
X133772738Y-11957885D01*
X133765776Y-11955578D01*
X133765774Y-11955577D01*
X133610951Y-11904275D01*
X133610949Y-11904274D01*
X133604426Y-11902113D01*
X133597589Y-11901414D01*
X133597587Y-11901414D01*
X133503729Y-11891825D01*
X133503723Y-11891824D01*
X133500545Y-11891500D01*
X133497340Y-11891500D01*
X133354913Y-11891500D01*
X133320432Y-11886690D01*
X133219388Y-11857940D01*
X133219378Y-11857938D01*
X133213786Y-11856347D01*
X133207980Y-11855809D01*
X133056455Y-11841768D01*
X133056449Y-11841767D01*
X133053560Y-11841500D01*
X133050647Y-11841500D01*
X126029691Y-11841500D01*
X126023872Y-11841366D01*
X125952085Y-11838047D01*
X125946267Y-11837778D01*
X125940497Y-11838582D01*
X125940492Y-11838583D01*
X125869321Y-11848510D01*
X125863543Y-11849180D01*
X125792010Y-11855809D01*
X125792000Y-11855810D01*
X125786214Y-11856347D01*
X125780623Y-11857937D01*
X125780610Y-11857940D01*
X125768702Y-11861328D01*
X125751644Y-11864927D01*
X125739393Y-11866636D01*
X125739390Y-11866636D01*
X125733625Y-11867441D01*
X125728109Y-11869289D01*
X125728099Y-11869292D01*
X125659983Y-11892122D01*
X125654426Y-11893843D01*
X125585304Y-11913510D01*
X125585294Y-11913513D01*
X125579709Y-11915103D01*
X125574503Y-11917694D01*
X125574495Y-11917698D01*
X125563416Y-11923214D01*
X125547316Y-11929883D01*
X125535578Y-11933818D01*
X125535569Y-11933821D01*
X125530053Y-11935671D01*
X125524973Y-11938499D01*
X125524967Y-11938503D01*
X125462181Y-11973474D01*
X125457036Y-11976186D01*
X125449961Y-11979709D01*
X125387516Y-12010804D01*
X125382875Y-12014307D01*
X125382866Y-12014314D01*
X125372998Y-12021766D01*
X125358391Y-12031284D01*
X125347572Y-12037310D01*
X125347560Y-12037317D01*
X125342485Y-12040145D01*
X125318599Y-12059980D01*
X125282731Y-12089764D01*
X125278170Y-12093376D01*
X125220833Y-12136675D01*
X125220825Y-12136681D01*
X125216180Y-12140190D01*
X125212257Y-12144492D01*
X125212256Y-12144494D01*
X125163843Y-12197600D01*
X125159824Y-12201808D01*
X122201797Y-15159834D01*
X122197588Y-15163853D01*
X122140190Y-15216180D01*
X122136682Y-15220825D01*
X122136675Y-15220833D01*
X122093384Y-15278159D01*
X122089773Y-15282719D01*
X122043864Y-15338006D01*
X122043858Y-15338014D01*
X122040146Y-15342485D01*
X122037315Y-15347566D01*
X122037311Y-15347573D01*
X122031289Y-15358384D01*
X122021775Y-15372985D01*
X122014316Y-15382862D01*
X122014305Y-15382879D01*
X122010804Y-15387516D01*
X122008210Y-15392724D01*
X122008207Y-15392730D01*
X121976188Y-15457033D01*
X121973475Y-15462181D01*
X121938506Y-15524962D01*
X121938503Y-15524967D01*
X121935671Y-15530053D01*
X121933821Y-15535569D01*
X121933815Y-15535585D01*
X121929885Y-15547311D01*
X121923215Y-15563416D01*
X121917698Y-15574496D01*
X121917695Y-15574501D01*
X121915103Y-15579709D01*
X121913511Y-15585300D01*
X121913506Y-15585316D01*
X121893843Y-15654423D01*
X121892123Y-15659979D01*
X121872457Y-15718659D01*
X121867441Y-15733624D01*
X121866637Y-15739390D01*
X121864927Y-15751644D01*
X121861328Y-15768702D01*
X121857940Y-15780610D01*
X121857937Y-15780623D01*
X121856347Y-15786214D01*
X121855810Y-15792002D01*
X121855809Y-15792011D01*
X121849180Y-15863542D01*
X121848510Y-15869319D01*
X121838583Y-15940491D01*
X121838582Y-15940498D01*
X121837778Y-15946267D01*
X121838047Y-15952085D01*
X121838047Y-15952086D01*
X121841366Y-16023872D01*
X121841500Y-16029691D01*
X121841500Y-17180309D01*
X121841365Y-17186128D01*
X121837778Y-17263733D01*
X120000500Y-17263733D01*
X120000500Y-5126500D01*
X120017381Y-5063500D01*
X120063500Y-5017381D01*
X120126500Y-5000500D01*
X159873500Y-5000500D01*
X159936500Y-5017381D01*
G37*
G04 #@! TD.AperFunction*
G04 #@! TA.AperFunction,Conductor*
G36*
X129905263Y-14172316D02*
G01*
X129950048Y-14210736D01*
X129972430Y-14265332D01*
X129967501Y-14324132D01*
X129952113Y-14370574D01*
X129941500Y-14474455D01*
X129941500Y-14477659D01*
X129941500Y-14477660D01*
X129941500Y-15522338D01*
X129941500Y-15522357D01*
X129941501Y-15525544D01*
X129941825Y-15528721D01*
X129941826Y-15528729D01*
X129949700Y-15605810D01*
X129952113Y-15629426D01*
X129954272Y-15635943D01*
X129954274Y-15635950D01*
X130002209Y-15780610D01*
X130007885Y-15797738D01*
X130011732Y-15803976D01*
X130011735Y-15803981D01*
X130069531Y-15897682D01*
X130100970Y-15948652D01*
X130106162Y-15953844D01*
X130106163Y-15953845D01*
X130192095Y-16039777D01*
X130219409Y-16080654D01*
X130229000Y-16128872D01*
X130229000Y-16288903D01*
X130229000Y-16471097D01*
X130230574Y-16477993D01*
X130230575Y-16478002D01*
X130237591Y-16508742D01*
X130239957Y-16522667D01*
X130243489Y-16554008D01*
X130243490Y-16554015D01*
X130244283Y-16561047D01*
X130246618Y-16567720D01*
X130246620Y-16567729D01*
X130257035Y-16597494D01*
X130260945Y-16611065D01*
X130267965Y-16641821D01*
X130267968Y-16641831D01*
X130269541Y-16648720D01*
X130283614Y-16677942D01*
X130286296Y-16683512D01*
X130291703Y-16696566D01*
X130302119Y-16726335D01*
X130302121Y-16726339D01*
X130304457Y-16733015D01*
X130308219Y-16739003D01*
X130308221Y-16739006D01*
X130325000Y-16765709D01*
X130331831Y-16778068D01*
X130348591Y-16812870D01*
X130372669Y-16843062D01*
X130380843Y-16854583D01*
X130397622Y-16881286D01*
X130401389Y-16887281D01*
X130406397Y-16892288D01*
X130406397Y-16892289D01*
X131249595Y-17735487D01*
X131276909Y-17776364D01*
X131286500Y-17824582D01*
X131286500Y-18241502D01*
X131289438Y-18278831D01*
X131335855Y-18438601D01*
X131420547Y-18581807D01*
X131538193Y-18699453D01*
X131681399Y-18784145D01*
X131841169Y-18830562D01*
X131878498Y-18833500D01*
X132309033Y-18833500D01*
X132311502Y-18833500D01*
X132348831Y-18830562D01*
X132508601Y-18784145D01*
X132651807Y-18699453D01*
X132654739Y-18696520D01*
X132702513Y-18674039D01*
X132757487Y-18674039D01*
X132805260Y-18696520D01*
X132808193Y-18699453D01*
X132951399Y-18784145D01*
X133111169Y-18830562D01*
X133148498Y-18833500D01*
X133579033Y-18833500D01*
X133581502Y-18833500D01*
X133618831Y-18830562D01*
X133778601Y-18784145D01*
X133921807Y-18699453D01*
X133924739Y-18696520D01*
X133972513Y-18674039D01*
X134027487Y-18674039D01*
X134075260Y-18696520D01*
X134078193Y-18699453D01*
X134221399Y-18784145D01*
X134381169Y-18830562D01*
X134418498Y-18833500D01*
X134849033Y-18833500D01*
X134851502Y-18833500D01*
X134888831Y-18830562D01*
X135048601Y-18784145D01*
X135191807Y-18699453D01*
X135194739Y-18696520D01*
X135242513Y-18674039D01*
X135297487Y-18674039D01*
X135345260Y-18696520D01*
X135348193Y-18699453D01*
X135491399Y-18784145D01*
X135651169Y-18830562D01*
X135688498Y-18833500D01*
X136119033Y-18833500D01*
X136121502Y-18833500D01*
X136158831Y-18830562D01*
X136318601Y-18784145D01*
X136461807Y-18699453D01*
X136579453Y-18581807D01*
X136664145Y-18438601D01*
X136710562Y-18278831D01*
X136713500Y-18241502D01*
X136713500Y-17824582D01*
X136723091Y-17776364D01*
X136750405Y-17735487D01*
X137603801Y-16882091D01*
X137603803Y-16882089D01*
X137603802Y-16882089D01*
X137636111Y-16849781D01*
X137656656Y-16817082D01*
X137664830Y-16805562D01*
X137688909Y-16775369D01*
X137705664Y-16740573D01*
X137712490Y-16728223D01*
X137733043Y-16695515D01*
X137745801Y-16659053D01*
X137751202Y-16646013D01*
X137767959Y-16611220D01*
X137776551Y-16573571D01*
X137780459Y-16560006D01*
X137793217Y-16523547D01*
X137797540Y-16485164D01*
X137799900Y-16471267D01*
X137808500Y-16433596D01*
X137808500Y-16284500D01*
X137825381Y-16221500D01*
X137871500Y-16175381D01*
X137934500Y-16158500D01*
X139050647Y-16158500D01*
X139053560Y-16158500D01*
X139213786Y-16143653D01*
X139320432Y-16113309D01*
X139354915Y-16108499D01*
X139497338Y-16108499D01*
X139500544Y-16108499D01*
X139604426Y-16097887D01*
X139772738Y-16042115D01*
X139923652Y-15949030D01*
X140049030Y-15823652D01*
X140142115Y-15672738D01*
X140164292Y-15605808D01*
X140194706Y-15556442D01*
X140244010Y-15525922D01*
X140301760Y-15520715D01*
X140355728Y-15541922D01*
X140394483Y-15585054D01*
X140395963Y-15587765D01*
X140399111Y-15596204D01*
X140404508Y-15603414D01*
X140404510Y-15603417D01*
X140461077Y-15678981D01*
X140486739Y-15713261D01*
X140493950Y-15718659D01*
X140584192Y-15786214D01*
X140603796Y-15800889D01*
X140740799Y-15851989D01*
X140801362Y-15858500D01*
X142395269Y-15858500D01*
X142398638Y-15858500D01*
X142459201Y-15851989D01*
X142596204Y-15800889D01*
X142713261Y-15713261D01*
X142800889Y-15596204D01*
X142806200Y-15581964D01*
X142833063Y-15539051D01*
X142874654Y-15510173D01*
X142924254Y-15500000D01*
X144215500Y-15500000D01*
X144278500Y-15516881D01*
X144324619Y-15563000D01*
X144341500Y-15626000D01*
X144341500Y-20374000D01*
X144324619Y-20437000D01*
X144278500Y-20483119D01*
X144215500Y-20500000D01*
X138000000Y-20500000D01*
X138000000Y-20516590D01*
X138000000Y-21874000D01*
X137983119Y-21937000D01*
X137937000Y-21983119D01*
X137874000Y-22000000D01*
X135569500Y-22000000D01*
X135506500Y-21983119D01*
X135460381Y-21937000D01*
X135443500Y-21874000D01*
X135443500Y-21760968D01*
X135443500Y-21758498D01*
X135440562Y-21721169D01*
X135394145Y-21561399D01*
X135309453Y-21418193D01*
X135191807Y-21300547D01*
X135102974Y-21248011D01*
X135055426Y-21219891D01*
X135055424Y-21219890D01*
X135048601Y-21215855D01*
X135040989Y-21213643D01*
X135040988Y-21213643D01*
X134895007Y-21171232D01*
X134895004Y-21171231D01*
X134888831Y-21169438D01*
X134882424Y-21168933D01*
X134882420Y-21168933D01*
X134853958Y-21166693D01*
X134853950Y-21166692D01*
X134851502Y-21166500D01*
X134418498Y-21166500D01*
X134416050Y-21166692D01*
X134416041Y-21166693D01*
X134387579Y-21168933D01*
X134387574Y-21168933D01*
X134381169Y-21169438D01*
X134374997Y-21171231D01*
X134374992Y-21171232D01*
X134229011Y-21213643D01*
X134229007Y-21213644D01*
X134221399Y-21215855D01*
X134214578Y-21219888D01*
X134214573Y-21219891D01*
X134085021Y-21296508D01*
X134085015Y-21296511D01*
X134078193Y-21300547D01*
X134075258Y-21303481D01*
X134027485Y-21325961D01*
X133972515Y-21325961D01*
X133924741Y-21303481D01*
X133921807Y-21300547D01*
X133914979Y-21296509D01*
X133914978Y-21296508D01*
X133785426Y-21219891D01*
X133785424Y-21219890D01*
X133778601Y-21215855D01*
X133770989Y-21213643D01*
X133770988Y-21213643D01*
X133625007Y-21171232D01*
X133625004Y-21171231D01*
X133618831Y-21169438D01*
X133612424Y-21168933D01*
X133612420Y-21168933D01*
X133583958Y-21166693D01*
X133583950Y-21166692D01*
X133581502Y-21166500D01*
X133148498Y-21166500D01*
X133146050Y-21166692D01*
X133146041Y-21166693D01*
X133117579Y-21168933D01*
X133117574Y-21168933D01*
X133111169Y-21169438D01*
X133104997Y-21171231D01*
X133104992Y-21171232D01*
X132959011Y-21213643D01*
X132959007Y-21213644D01*
X132951399Y-21215855D01*
X132944578Y-21219888D01*
X132944573Y-21219891D01*
X132815021Y-21296508D01*
X132815015Y-21296511D01*
X132808193Y-21300547D01*
X132805258Y-21303481D01*
X132757485Y-21325961D01*
X132702515Y-21325961D01*
X132654741Y-21303481D01*
X132651807Y-21300547D01*
X132644979Y-21296509D01*
X132644978Y-21296508D01*
X132515426Y-21219891D01*
X132515424Y-21219890D01*
X132508601Y-21215855D01*
X132500989Y-21213643D01*
X132500988Y-21213643D01*
X132355007Y-21171232D01*
X132355004Y-21171231D01*
X132348831Y-21169438D01*
X132342424Y-21168933D01*
X132342420Y-21168933D01*
X132313958Y-21166693D01*
X132313950Y-21166692D01*
X132311502Y-21166500D01*
X131878498Y-21166500D01*
X131876050Y-21166692D01*
X131876041Y-21166693D01*
X131847579Y-21168933D01*
X131847574Y-21168933D01*
X131841169Y-21169438D01*
X131834997Y-21171231D01*
X131834992Y-21171232D01*
X131689011Y-21213643D01*
X131689007Y-21213644D01*
X131681399Y-21215855D01*
X131674578Y-21219888D01*
X131674573Y-21219891D01*
X131545020Y-21296509D01*
X131545017Y-21296511D01*
X131538193Y-21300547D01*
X131532588Y-21306151D01*
X131532584Y-21306155D01*
X131426155Y-21412584D01*
X131426151Y-21412588D01*
X131420547Y-21418193D01*
X131416511Y-21425017D01*
X131416509Y-21425020D01*
X131339891Y-21554573D01*
X131339888Y-21554578D01*
X131335855Y-21561399D01*
X131333644Y-21569007D01*
X131333643Y-21569011D01*
X131291232Y-21714992D01*
X131291231Y-21714997D01*
X131289438Y-21721169D01*
X131286500Y-21758498D01*
X131286500Y-21760968D01*
X131286500Y-21874000D01*
X131269619Y-21937000D01*
X131223500Y-21983119D01*
X131160500Y-22000000D01*
X128784500Y-22000000D01*
X128721500Y-21983119D01*
X128675381Y-21937000D01*
X128658500Y-21874000D01*
X128658500Y-20529691D01*
X128658634Y-20523872D01*
X128658971Y-20516590D01*
X128662222Y-20446267D01*
X128660929Y-20437000D01*
X128651491Y-20369340D01*
X128650821Y-20363578D01*
X128643653Y-20286214D01*
X128638674Y-20268715D01*
X128635071Y-20251634D01*
X128633364Y-20239394D01*
X128633363Y-20239391D01*
X128632559Y-20233624D01*
X128607863Y-20159941D01*
X128606154Y-20154421D01*
X128586492Y-20085314D01*
X128586491Y-20085311D01*
X128584897Y-20079709D01*
X128576785Y-20063419D01*
X128570114Y-20047316D01*
X128564329Y-20030053D01*
X128526521Y-19962177D01*
X128523813Y-19957038D01*
X128489196Y-19887516D01*
X128482140Y-19878173D01*
X128478233Y-19872999D01*
X128468707Y-19858380D01*
X128459854Y-19842485D01*
X128410225Y-19782720D01*
X128406616Y-19778163D01*
X128363321Y-19720829D01*
X128363319Y-19720826D01*
X128359810Y-19716180D01*
X128355507Y-19712257D01*
X128355504Y-19712254D01*
X128302398Y-19663842D01*
X128298189Y-19659822D01*
X126570176Y-17931809D01*
X126566156Y-17927600D01*
X126517745Y-17874495D01*
X126517742Y-17874492D01*
X126513820Y-17870190D01*
X126509173Y-17866681D01*
X126509170Y-17866678D01*
X126451835Y-17823382D01*
X126447271Y-17819767D01*
X126391995Y-17773866D01*
X126391993Y-17773865D01*
X126387515Y-17770146D01*
X126382426Y-17767311D01*
X126382424Y-17767310D01*
X126371618Y-17761291D01*
X126357004Y-17751769D01*
X126355126Y-17750351D01*
X126342484Y-17740804D01*
X126337275Y-17738210D01*
X126337265Y-17738204D01*
X126272940Y-17706174D01*
X126267804Y-17703467D01*
X126199947Y-17665671D01*
X126194430Y-17663821D01*
X126194417Y-17663816D01*
X126182687Y-17659885D01*
X126166573Y-17653210D01*
X126155509Y-17647701D01*
X126155507Y-17647700D01*
X126150291Y-17645103D01*
X126144687Y-17643508D01*
X126144686Y-17643508D01*
X126075583Y-17623846D01*
X126070025Y-17622125D01*
X126001895Y-17599290D01*
X126001887Y-17599288D01*
X125996376Y-17597441D01*
X125978356Y-17594927D01*
X125961286Y-17591326D01*
X125949397Y-17587943D01*
X125949392Y-17587942D01*
X125943786Y-17586347D01*
X125937984Y-17585809D01*
X125937977Y-17585808D01*
X125866456Y-17579180D01*
X125860678Y-17578510D01*
X125789506Y-17568583D01*
X125789503Y-17568582D01*
X125783733Y-17567778D01*
X125777913Y-17568047D01*
X125706128Y-17571366D01*
X125700309Y-17571500D01*
X125530560Y-17571500D01*
X125469111Y-17555500D01*
X125319528Y-17471938D01*
X125319525Y-17471936D01*
X125314859Y-17469330D01*
X125309821Y-17467550D01*
X125309819Y-17467549D01*
X125098652Y-17392939D01*
X125098650Y-17392938D01*
X125093608Y-17391157D01*
X125088338Y-17390253D01*
X125088333Y-17390252D01*
X124867596Y-17352403D01*
X124867592Y-17352402D01*
X124862328Y-17351500D01*
X124856980Y-17351500D01*
X124832057Y-17351500D01*
X124783839Y-17341909D01*
X124742961Y-17314595D01*
X124195404Y-16767037D01*
X124168091Y-16726160D01*
X124158500Y-16677942D01*
X124158500Y-16532057D01*
X124168091Y-16483839D01*
X124195405Y-16442962D01*
X126442961Y-14195405D01*
X126483838Y-14168091D01*
X126532056Y-14158500D01*
X129847897Y-14158500D01*
X129905263Y-14172316D01*
G37*
G04 #@! TD.AperFunction*
G04 #@! TA.AperFunction,Conductor*
G36*
X159936500Y-5017381D02*
G01*
X159982619Y-5063500D01*
X159999500Y-5126500D01*
X159999500Y-34873500D01*
X159982619Y-34936500D01*
X159936500Y-34982619D01*
X159873500Y-34999500D01*
X120126500Y-34999500D01*
X120063500Y-34982619D01*
X120017381Y-34936500D01*
X120000500Y-34873500D01*
X120000500Y-17263733D01*
X121837778Y-17263733D01*
X121838582Y-17269503D01*
X121838583Y-17269506D01*
X121848510Y-17340678D01*
X121849180Y-17346456D01*
X121855808Y-17417977D01*
X121855809Y-17417984D01*
X121856347Y-17423786D01*
X121857942Y-17429392D01*
X121857943Y-17429397D01*
X121861326Y-17441286D01*
X121864927Y-17458356D01*
X121867441Y-17476376D01*
X121869288Y-17481887D01*
X121869290Y-17481895D01*
X121892125Y-17550025D01*
X121893846Y-17555583D01*
X121903053Y-17587943D01*
X121915103Y-17630291D01*
X121917700Y-17635507D01*
X121917701Y-17635509D01*
X121923210Y-17646573D01*
X121929885Y-17662687D01*
X121933816Y-17674417D01*
X121933821Y-17674430D01*
X121935671Y-17679947D01*
X121973461Y-17747792D01*
X121976174Y-17752940D01*
X122008204Y-17817265D01*
X122008210Y-17817275D01*
X122010804Y-17822484D01*
X122021769Y-17837004D01*
X122031291Y-17851618D01*
X122040146Y-17867515D01*
X122043865Y-17871993D01*
X122043866Y-17871995D01*
X122089767Y-17927271D01*
X122093381Y-17931834D01*
X122140190Y-17993820D01*
X122144492Y-17997741D01*
X122144495Y-17997745D01*
X122197590Y-18046146D01*
X122201801Y-18050167D01*
X122882041Y-18730408D01*
X122908304Y-18768824D01*
X122918831Y-18814154D01*
X122922494Y-18900374D01*
X122922494Y-18900380D01*
X122922722Y-18905727D01*
X122923849Y-18910960D01*
X122923850Y-18910961D01*
X122971030Y-19129880D01*
X122971031Y-19129886D01*
X122972159Y-19135116D01*
X122974155Y-19140085D01*
X122974156Y-19140086D01*
X123057656Y-19347887D01*
X123057659Y-19347894D01*
X123059651Y-19352850D01*
X123062454Y-19357403D01*
X123062456Y-19357406D01*
X123118841Y-19448981D01*
X123182683Y-19552665D01*
X123337714Y-19728815D01*
X123520284Y-19876230D01*
X123725141Y-19990670D01*
X123946392Y-20068843D01*
X124177672Y-20108500D01*
X124800892Y-20108500D01*
X124803558Y-20108500D01*
X124978810Y-20093584D01*
X125205894Y-20034456D01*
X125257491Y-20011131D01*
X125306712Y-19999974D01*
X125356368Y-20009032D01*
X125398484Y-20036851D01*
X126304595Y-20942962D01*
X126331909Y-20983839D01*
X126341500Y-21032057D01*
X126341500Y-22470309D01*
X126341365Y-22476128D01*
X126337778Y-22553733D01*
X126338582Y-22559503D01*
X126338583Y-22559506D01*
X126348510Y-22630678D01*
X126349180Y-22636456D01*
X126355808Y-22707977D01*
X126355809Y-22707984D01*
X126356347Y-22713786D01*
X126357942Y-22719392D01*
X126357943Y-22719397D01*
X126361326Y-22731286D01*
X126364927Y-22748356D01*
X126367441Y-22766376D01*
X126369288Y-22771887D01*
X126369290Y-22771895D01*
X126392125Y-22840025D01*
X126393845Y-22845582D01*
X126415103Y-22920291D01*
X126417700Y-22925507D01*
X126417701Y-22925509D01*
X126423210Y-22936573D01*
X126429885Y-22952687D01*
X126433816Y-22964417D01*
X126433821Y-22964430D01*
X126435671Y-22969947D01*
X126473461Y-23037792D01*
X126476174Y-23042940D01*
X126508204Y-23107265D01*
X126508210Y-23107275D01*
X126510804Y-23112484D01*
X126521769Y-23127004D01*
X126531291Y-23141618D01*
X126540146Y-23157515D01*
X126543865Y-23161993D01*
X126543866Y-23161995D01*
X126589767Y-23217271D01*
X126593382Y-23221835D01*
X126636678Y-23279170D01*
X126636681Y-23279173D01*
X126640190Y-23283820D01*
X126644492Y-23287742D01*
X126644495Y-23287745D01*
X126697600Y-23336156D01*
X126701809Y-23340176D01*
X126963095Y-23601462D01*
X126990409Y-23642339D01*
X127000000Y-23690557D01*
X127000000Y-30500000D01*
X129998249Y-30500000D01*
X130064395Y-30518758D01*
X130102261Y-30542115D01*
X130270573Y-30597887D01*
X130374454Y-30608500D01*
X132622341Y-30608500D01*
X132625546Y-30608500D01*
X132729427Y-30597887D01*
X132828991Y-30564895D01*
X132868624Y-30558500D01*
X143070309Y-30558500D01*
X143076128Y-30558634D01*
X143153733Y-30562222D01*
X143159510Y-30561416D01*
X143159512Y-30561416D01*
X143230660Y-30551491D01*
X143236420Y-30550821D01*
X143313786Y-30543653D01*
X143331283Y-30538673D01*
X143348350Y-30535073D01*
X143366376Y-30532559D01*
X143440073Y-30507857D01*
X143445583Y-30506153D01*
X143446739Y-30505823D01*
X143450331Y-30504803D01*
X143484787Y-30500000D01*
X146986836Y-30500000D01*
X147000000Y-30500000D01*
X147971282Y-27586155D01*
X147997608Y-27541217D01*
X148039859Y-27510764D01*
X148090816Y-27500000D01*
X151483410Y-27500000D01*
X151500000Y-27500000D01*
X151500000Y-27334500D01*
X151516881Y-27271500D01*
X151563000Y-27225381D01*
X151626000Y-27208500D01*
X151995269Y-27208500D01*
X151998638Y-27208500D01*
X152059201Y-27201989D01*
X152196204Y-27150889D01*
X152313261Y-27063261D01*
X152400889Y-26946204D01*
X152451989Y-26809201D01*
X152458500Y-26748638D01*
X152458500Y-21251362D01*
X152451989Y-21190799D01*
X152400889Y-21053796D01*
X152384615Y-21032057D01*
X152318659Y-20943950D01*
X152313261Y-20936739D01*
X152306049Y-20931340D01*
X152203417Y-20854510D01*
X152203414Y-20854508D01*
X152196204Y-20849111D01*
X152187765Y-20845963D01*
X152187757Y-20845959D01*
X152083504Y-20807074D01*
X152032312Y-20771531D01*
X152004416Y-20715802D01*
X152006641Y-20653520D01*
X152038439Y-20599927D01*
X152942965Y-19695401D01*
X152983839Y-19668091D01*
X153032057Y-19658500D01*
X154568628Y-19658500D01*
X154616846Y-19668091D01*
X154657723Y-19695404D01*
X154681348Y-19719030D01*
X154687596Y-19722883D01*
X154687595Y-19722883D01*
X154826018Y-19808264D01*
X154826020Y-19808265D01*
X154832262Y-19812115D01*
X155000574Y-19867887D01*
X155104455Y-19878500D01*
X156895544Y-19878499D01*
X156999426Y-19867887D01*
X157167738Y-19812115D01*
X157318652Y-19719030D01*
X157444030Y-19593652D01*
X157537115Y-19442738D01*
X157592887Y-19274426D01*
X157603500Y-19170545D01*
X157603499Y-17829456D01*
X157592887Y-17725574D01*
X157537115Y-17557262D01*
X157532651Y-17550025D01*
X157457519Y-17428217D01*
X157444030Y-17406348D01*
X157318652Y-17280970D01*
X157281271Y-17257913D01*
X157173981Y-17191735D01*
X157173976Y-17191732D01*
X157167738Y-17187885D01*
X157160776Y-17185578D01*
X157160774Y-17185577D01*
X157005951Y-17134275D01*
X157005949Y-17134274D01*
X156999426Y-17132113D01*
X156992589Y-17131414D01*
X156992587Y-17131414D01*
X156898729Y-17121825D01*
X156898723Y-17121824D01*
X156895545Y-17121500D01*
X156892339Y-17121500D01*
X155107661Y-17121500D01*
X155107641Y-17121500D01*
X155104456Y-17121501D01*
X155101279Y-17121825D01*
X155101270Y-17121826D01*
X155007411Y-17131414D01*
X155007405Y-17131415D01*
X155000574Y-17132113D01*
X154994058Y-17134271D01*
X154994049Y-17134274D01*
X154839225Y-17185577D01*
X154839219Y-17185579D01*
X154832262Y-17187885D01*
X154826026Y-17191730D01*
X154826018Y-17191735D01*
X154687595Y-17277116D01*
X154687590Y-17277119D01*
X154681348Y-17280970D01*
X154676158Y-17286159D01*
X154676154Y-17286163D01*
X154657723Y-17304595D01*
X154616846Y-17331909D01*
X154568628Y-17341500D01*
X152529691Y-17341500D01*
X152523872Y-17341366D01*
X152452085Y-17338047D01*
X152446267Y-17337778D01*
X152440498Y-17338582D01*
X152440491Y-17338583D01*
X152369319Y-17348510D01*
X152363542Y-17349180D01*
X152292011Y-17355809D01*
X152292002Y-17355810D01*
X152286214Y-17356347D01*
X152280623Y-17357937D01*
X152280610Y-17357940D01*
X152268702Y-17361328D01*
X152251645Y-17364926D01*
X152233624Y-17367441D01*
X152228103Y-17369291D01*
X152228100Y-17369292D01*
X152159979Y-17392123D01*
X152154423Y-17393843D01*
X152085316Y-17413506D01*
X152085300Y-17413511D01*
X152079709Y-17415103D01*
X152074501Y-17417695D01*
X152074496Y-17417698D01*
X152063416Y-17423215D01*
X152047311Y-17429885D01*
X152035585Y-17433815D01*
X152035569Y-17433821D01*
X152030053Y-17435671D01*
X152024967Y-17438503D01*
X152024962Y-17438506D01*
X151962181Y-17473475D01*
X151957033Y-17476188D01*
X151892730Y-17508207D01*
X151892724Y-17508210D01*
X151887516Y-17510804D01*
X151882879Y-17514305D01*
X151882862Y-17514316D01*
X151872985Y-17521775D01*
X151858388Y-17531287D01*
X151853492Y-17534014D01*
X151845822Y-17538286D01*
X151783056Y-17554209D01*
X151720668Y-17536852D01*
X151675141Y-17490800D01*
X151658500Y-17428217D01*
X151658500Y-13529691D01*
X151658634Y-13523872D01*
X151659849Y-13497588D01*
X151662222Y-13446267D01*
X151651491Y-13369340D01*
X151650821Y-13363578D01*
X151643653Y-13286214D01*
X151638674Y-13268715D01*
X151635071Y-13251634D01*
X151633364Y-13239394D01*
X151633363Y-13239391D01*
X151632559Y-13233624D01*
X151607863Y-13159941D01*
X151606154Y-13154421D01*
X151586492Y-13085314D01*
X151586491Y-13085311D01*
X151584897Y-13079709D01*
X151576785Y-13063419D01*
X151570114Y-13047316D01*
X151564329Y-13030053D01*
X151526521Y-12962177D01*
X151523812Y-12957036D01*
X151513208Y-12935739D01*
X151500000Y-12879579D01*
X151500000Y-12515558D01*
X151500000Y-12500000D01*
X151466116Y-12477411D01*
X150425481Y-11783654D01*
X150406278Y-11767911D01*
X148840176Y-10201809D01*
X148836156Y-10197600D01*
X148787745Y-10144495D01*
X148787742Y-10144492D01*
X148783820Y-10140190D01*
X148779173Y-10136681D01*
X148779170Y-10136678D01*
X148721835Y-10093382D01*
X148717271Y-10089767D01*
X148661995Y-10043866D01*
X148661992Y-10043864D01*
X148657515Y-10040146D01*
X148652426Y-10037311D01*
X148652424Y-10037310D01*
X148641618Y-10031291D01*
X148627004Y-10021769D01*
X148612484Y-10010804D01*
X148607275Y-10008210D01*
X148607265Y-10008204D01*
X148542940Y-9976174D01*
X148537804Y-9973467D01*
X148469947Y-9935671D01*
X148464430Y-9933821D01*
X148464417Y-9933816D01*
X148452687Y-9929885D01*
X148436573Y-9923210D01*
X148425509Y-9917701D01*
X148425507Y-9917700D01*
X148420291Y-9915103D01*
X148414687Y-9913508D01*
X148414686Y-9913508D01*
X148345583Y-9893846D01*
X148340025Y-9892125D01*
X148271895Y-9869290D01*
X148271887Y-9869288D01*
X148266376Y-9867441D01*
X148248356Y-9864927D01*
X148231286Y-9861326D01*
X148219397Y-9857943D01*
X148219392Y-9857942D01*
X148213786Y-9856347D01*
X148207984Y-9855809D01*
X148207977Y-9855808D01*
X148136456Y-9849180D01*
X148130678Y-9848510D01*
X148059506Y-9838583D01*
X148059503Y-9838582D01*
X148053733Y-9837778D01*
X148047913Y-9838047D01*
X147976128Y-9841366D01*
X147970309Y-9841500D01*
X143029691Y-9841500D01*
X143023872Y-9841366D01*
X142952085Y-9838047D01*
X142946267Y-9837778D01*
X142940498Y-9838582D01*
X142940491Y-9838583D01*
X142869319Y-9848510D01*
X142863542Y-9849180D01*
X142792011Y-9855809D01*
X142792002Y-9855810D01*
X142786214Y-9856347D01*
X142780623Y-9857937D01*
X142780610Y-9857940D01*
X142768702Y-9861328D01*
X142751645Y-9864926D01*
X142733624Y-9867441D01*
X142728103Y-9869291D01*
X142728100Y-9869292D01*
X142659979Y-9892123D01*
X142654423Y-9893843D01*
X142585316Y-9913506D01*
X142585300Y-9913511D01*
X142579709Y-9915103D01*
X142574501Y-9917695D01*
X142574496Y-9917698D01*
X142563416Y-9923215D01*
X142547311Y-9929885D01*
X142535585Y-9933815D01*
X142535569Y-9933821D01*
X142530053Y-9935671D01*
X142524967Y-9938503D01*
X142524962Y-9938506D01*
X142462181Y-9973475D01*
X142457033Y-9976188D01*
X142392730Y-10008207D01*
X142392724Y-10008210D01*
X142387516Y-10010804D01*
X142382879Y-10014305D01*
X142382862Y-10014316D01*
X142372985Y-10021775D01*
X142358384Y-10031289D01*
X142347573Y-10037311D01*
X142347566Y-10037315D01*
X142342485Y-10040146D01*
X142338014Y-10043858D01*
X142338006Y-10043864D01*
X142282719Y-10089773D01*
X142278159Y-10093384D01*
X142220833Y-10136675D01*
X142220825Y-10136682D01*
X142216180Y-10140190D01*
X142212257Y-10144492D01*
X142212256Y-10144494D01*
X142163853Y-10197589D01*
X142159834Y-10201797D01*
X142007036Y-10354595D01*
X141966159Y-10381909D01*
X141917941Y-10391500D01*
X141302661Y-10391500D01*
X141302641Y-10391500D01*
X141299456Y-10391501D01*
X141296279Y-10391825D01*
X141296270Y-10391826D01*
X141202411Y-10401414D01*
X141202405Y-10401415D01*
X141195574Y-10402113D01*
X141189058Y-10404271D01*
X141189049Y-10404274D01*
X141034225Y-10455577D01*
X141034219Y-10455579D01*
X141027262Y-10457885D01*
X141021026Y-10461730D01*
X141021018Y-10461735D01*
X140882595Y-10547116D01*
X140882590Y-10547119D01*
X140876348Y-10550970D01*
X140871158Y-10556159D01*
X140871154Y-10556163D01*
X140756163Y-10671154D01*
X140756159Y-10671158D01*
X140750970Y-10676348D01*
X140747119Y-10682590D01*
X140747116Y-10682595D01*
X140661735Y-10821018D01*
X140661730Y-10821026D01*
X140657885Y-10827262D01*
X140655579Y-10834219D01*
X140655577Y-10834225D01*
X140604275Y-10989048D01*
X140602113Y-10995574D01*
X140591500Y-11099455D01*
X140591500Y-11102661D01*
X140591500Y-11796647D01*
X140578283Y-11852825D01*
X140576175Y-11857057D01*
X140573469Y-11862190D01*
X140538508Y-11924957D01*
X140538502Y-11924969D01*
X140535671Y-11930053D01*
X140533821Y-11935569D01*
X140533815Y-11935585D01*
X140529885Y-11947311D01*
X140523215Y-11963416D01*
X140517698Y-11974496D01*
X140517695Y-11974501D01*
X140515103Y-11979709D01*
X140513511Y-11985300D01*
X140513506Y-11985316D01*
X140493843Y-12054423D01*
X140492123Y-12059980D01*
X140476853Y-12105541D01*
X140450500Y-12150385D01*
X140408278Y-12180764D01*
X140357384Y-12191500D01*
X140116372Y-12191500D01*
X140068154Y-12181909D01*
X140027277Y-12154595D01*
X139928845Y-12056163D01*
X139928844Y-12056162D01*
X139923652Y-12050970D01*
X139901506Y-12037310D01*
X139778981Y-11961735D01*
X139778976Y-11961732D01*
X139772738Y-11957885D01*
X139765776Y-11955578D01*
X139765774Y-11955577D01*
X139610951Y-11904275D01*
X139610949Y-11904274D01*
X139604426Y-11902113D01*
X139597589Y-11901414D01*
X139597587Y-11901414D01*
X139503729Y-11891825D01*
X139503723Y-11891824D01*
X139500545Y-11891500D01*
X139497339Y-11891500D01*
X138502661Y-11891500D01*
X138502641Y-11891500D01*
X138499456Y-11891501D01*
X138496279Y-11891825D01*
X138496270Y-11891826D01*
X138402411Y-11901414D01*
X138402405Y-11901415D01*
X138395574Y-11902113D01*
X138389058Y-11904271D01*
X138389049Y-11904274D01*
X138234225Y-11955577D01*
X138234219Y-11955579D01*
X138227262Y-11957885D01*
X138221026Y-11961730D01*
X138221018Y-11961735D01*
X138082595Y-12047116D01*
X138082590Y-12047119D01*
X138076348Y-12050970D01*
X138071158Y-12056159D01*
X138071154Y-12056163D01*
X137956163Y-12171154D01*
X137956159Y-12171158D01*
X137950970Y-12176348D01*
X137947119Y-12182590D01*
X137947116Y-12182595D01*
X137861735Y-12321018D01*
X137861730Y-12321026D01*
X137857885Y-12327262D01*
X137855579Y-12334219D01*
X137855577Y-12334225D01*
X137804275Y-12489048D01*
X137802113Y-12495574D01*
X137801414Y-12502408D01*
X137801414Y-12502412D01*
X137791825Y-12596270D01*
X137791500Y-12599455D01*
X137791500Y-12602659D01*
X137791500Y-12602660D01*
X137791500Y-13397338D01*
X137791500Y-13397357D01*
X137791501Y-13400544D01*
X137791825Y-13403721D01*
X137791826Y-13403729D01*
X137797671Y-13460951D01*
X137802113Y-13504426D01*
X137804272Y-13510943D01*
X137804274Y-13510950D01*
X137857885Y-13672738D01*
X137856015Y-13673357D01*
X137865471Y-13723729D01*
X137846011Y-13783193D01*
X137800348Y-13825966D01*
X137739740Y-13841500D01*
X136946440Y-13841500D01*
X136943551Y-13841767D01*
X136943544Y-13841768D01*
X136792011Y-13855809D01*
X136792002Y-13855810D01*
X136786214Y-13856347D01*
X136780614Y-13857940D01*
X136780610Y-13857941D01*
X136679566Y-13886690D01*
X136645086Y-13891500D01*
X136502662Y-13891500D01*
X136502642Y-13891500D01*
X136499456Y-13891501D01*
X136496280Y-13891825D01*
X136496269Y-13891826D01*
X136402411Y-13901414D01*
X136402405Y-13901415D01*
X136395574Y-13902113D01*
X136389058Y-13904271D01*
X136389049Y-13904274D01*
X136234217Y-13955580D01*
X136234214Y-13955581D01*
X136231426Y-13956505D01*
X136231421Y-13956506D01*
X136227262Y-13957885D01*
X136227051Y-13957250D01*
X136166997Y-13967471D01*
X136104785Y-13943577D01*
X136063463Y-13891291D01*
X136054590Y-13825241D01*
X136075994Y-13774863D01*
X136074030Y-13773652D01*
X136135893Y-13673357D01*
X136167115Y-13622738D01*
X136222887Y-13454426D01*
X136233500Y-13350545D01*
X136233499Y-12574456D01*
X136222887Y-12470574D01*
X136167115Y-12302262D01*
X136074030Y-12151348D01*
X135980299Y-12057617D01*
X135950580Y-12010466D01*
X135944110Y-11955108D01*
X135962154Y-11902375D01*
X136038261Y-11778987D01*
X136038262Y-11778984D01*
X136042115Y-11772738D01*
X136097887Y-11604426D01*
X136108500Y-11500545D01*
X136108499Y-10499456D01*
X136097887Y-10395574D01*
X136042115Y-10227262D01*
X136026415Y-10201809D01*
X135958454Y-10091627D01*
X135949030Y-10076348D01*
X135823652Y-9950970D01*
X135803445Y-9938506D01*
X135678981Y-9861735D01*
X135678976Y-9861732D01*
X135672738Y-9857885D01*
X135665776Y-9855578D01*
X135665774Y-9855577D01*
X135510951Y-9804275D01*
X135510949Y-9804274D01*
X135504426Y-9802113D01*
X135497589Y-9801414D01*
X135497587Y-9801414D01*
X135403729Y-9791825D01*
X135403723Y-9791824D01*
X135400545Y-9791500D01*
X135397339Y-9791500D01*
X134602661Y-9791500D01*
X134602641Y-9791500D01*
X134599456Y-9791501D01*
X134596279Y-9791825D01*
X134596270Y-9791826D01*
X134502411Y-9801414D01*
X134502405Y-9801415D01*
X134495574Y-9802113D01*
X134489058Y-9804271D01*
X134489049Y-9804274D01*
X134334225Y-9855577D01*
X134334219Y-9855579D01*
X134327262Y-9857885D01*
X134321026Y-9861730D01*
X134321018Y-9861735D01*
X134182595Y-9947116D01*
X134182590Y-9947119D01*
X134176348Y-9950970D01*
X134171158Y-9956159D01*
X134171154Y-9956163D01*
X134056163Y-10071154D01*
X134056159Y-10071158D01*
X134050970Y-10076348D01*
X134047119Y-10082590D01*
X134047116Y-10082595D01*
X133961735Y-10221018D01*
X133961730Y-10221026D01*
X133957885Y-10227262D01*
X133955579Y-10234219D01*
X133955577Y-10234225D01*
X133906641Y-10381909D01*
X133902113Y-10395574D01*
X133901414Y-10402408D01*
X133901414Y-10402412D01*
X133891825Y-10496270D01*
X133891500Y-10499455D01*
X133891500Y-10502659D01*
X133891500Y-10502660D01*
X133891500Y-11497338D01*
X133891500Y-11497357D01*
X133891501Y-11500544D01*
X133902113Y-11604426D01*
X133904272Y-11610943D01*
X133904274Y-11610950D01*
X133955577Y-11765774D01*
X133957885Y-11772738D01*
X133961733Y-11778977D01*
X133961737Y-11778985D01*
X133976812Y-11803425D01*
X133995552Y-11867373D01*
X133979055Y-11931935D01*
X133931935Y-11979055D01*
X133867373Y-11995552D01*
X133803425Y-11976812D01*
X133778985Y-11961737D01*
X133778977Y-11961733D01*
X133772738Y-11957885D01*
X133765776Y-11955578D01*
X133765774Y-11955577D01*
X133610951Y-11904275D01*
X133610949Y-11904274D01*
X133604426Y-11902113D01*
X133597589Y-11901414D01*
X133597587Y-11901414D01*
X133503729Y-11891825D01*
X133503723Y-11891824D01*
X133500545Y-11891500D01*
X133497340Y-11891500D01*
X133354913Y-11891500D01*
X133320432Y-11886690D01*
X133219388Y-11857940D01*
X133219378Y-11857938D01*
X133213786Y-11856347D01*
X133207980Y-11855809D01*
X133056455Y-11841768D01*
X133056449Y-11841767D01*
X133053560Y-11841500D01*
X133050647Y-11841500D01*
X126029691Y-11841500D01*
X126023872Y-11841366D01*
X125952085Y-11838047D01*
X125946267Y-11837778D01*
X125940497Y-11838582D01*
X125940492Y-11838583D01*
X125869321Y-11848510D01*
X125863543Y-11849180D01*
X125792010Y-11855809D01*
X125792000Y-11855810D01*
X125786214Y-11856347D01*
X125780623Y-11857937D01*
X125780610Y-11857940D01*
X125768702Y-11861328D01*
X125751644Y-11864927D01*
X125739393Y-11866636D01*
X125739390Y-11866636D01*
X125733625Y-11867441D01*
X125728109Y-11869289D01*
X125728099Y-11869292D01*
X125659983Y-11892122D01*
X125654426Y-11893843D01*
X125585304Y-11913510D01*
X125585294Y-11913513D01*
X125579709Y-11915103D01*
X125574503Y-11917694D01*
X125574495Y-11917698D01*
X125563416Y-11923214D01*
X125547316Y-11929883D01*
X125535578Y-11933818D01*
X125535569Y-11933821D01*
X125530053Y-11935671D01*
X125524973Y-11938499D01*
X125524967Y-11938503D01*
X125462181Y-11973474D01*
X125457036Y-11976186D01*
X125449961Y-11979709D01*
X125387516Y-12010804D01*
X125382875Y-12014307D01*
X125382866Y-12014314D01*
X125372998Y-12021766D01*
X125358391Y-12031284D01*
X125347572Y-12037310D01*
X125347560Y-12037317D01*
X125342485Y-12040145D01*
X125318599Y-12059980D01*
X125282731Y-12089764D01*
X125278170Y-12093376D01*
X125220833Y-12136675D01*
X125220825Y-12136681D01*
X125216180Y-12140190D01*
X125212257Y-12144492D01*
X125212256Y-12144494D01*
X125163843Y-12197600D01*
X125159824Y-12201808D01*
X122201797Y-15159834D01*
X122197588Y-15163853D01*
X122140190Y-15216180D01*
X122136682Y-15220825D01*
X122136675Y-15220833D01*
X122093384Y-15278159D01*
X122089773Y-15282719D01*
X122043864Y-15338006D01*
X122043858Y-15338014D01*
X122040146Y-15342485D01*
X122037315Y-15347566D01*
X122037311Y-15347573D01*
X122031289Y-15358384D01*
X122021775Y-15372985D01*
X122014316Y-15382862D01*
X122014305Y-15382879D01*
X122010804Y-15387516D01*
X122008210Y-15392724D01*
X122008207Y-15392730D01*
X121976188Y-15457033D01*
X121973475Y-15462181D01*
X121938506Y-15524962D01*
X121938503Y-15524967D01*
X121935671Y-15530053D01*
X121933821Y-15535569D01*
X121933815Y-15535585D01*
X121929885Y-15547311D01*
X121923215Y-15563416D01*
X121917698Y-15574496D01*
X121917695Y-15574501D01*
X121915103Y-15579709D01*
X121913511Y-15585300D01*
X121913506Y-15585316D01*
X121893843Y-15654423D01*
X121892123Y-15659979D01*
X121872457Y-15718659D01*
X121867441Y-15733624D01*
X121866637Y-15739390D01*
X121864927Y-15751644D01*
X121861328Y-15768702D01*
X121857940Y-15780610D01*
X121857937Y-15780623D01*
X121856347Y-15786214D01*
X121855810Y-15792002D01*
X121855809Y-15792011D01*
X121849180Y-15863542D01*
X121848510Y-15869319D01*
X121838583Y-15940491D01*
X121838582Y-15940498D01*
X121837778Y-15946267D01*
X121838047Y-15952085D01*
X121838047Y-15952086D01*
X121841366Y-16023872D01*
X121841500Y-16029691D01*
X121841500Y-17180309D01*
X121841365Y-17186128D01*
X121837778Y-17263733D01*
X120000500Y-17263733D01*
X120000500Y-5126500D01*
X120017381Y-5063500D01*
X120063500Y-5017381D01*
X120126500Y-5000500D01*
X159873500Y-5000500D01*
X159936500Y-5017381D01*
G37*
G04 #@! TD.AperFunction*
M02*
